<?xml version="1.0" standalone="no"?>
<!DOCTYPE svg PUBLIC "-//W3C//DTD SVG 20010904//EN"
 "http://www.w3.org/TR/2001/REC-SVG-20010904/DTD/svg10.dtd">
<svg version="1.0" xmlns="http://www.w3.org/2000/svg"
 width="100.000000pt" height="100.000000pt" viewBox="0 0 500.000000 500.000000"
 preserveAspectRatio="xMidYMid meet">

<g transform="translate(0.000000,500.000000) scale(0.100000,-0.100000)"
fill="#000000" stroke="none">
<path d="M2305 4994 c-130 -14 -327 -49 -440 -78 -535 -139 -1032 -472 -1359
-911 -117 -157 -168 -240 -251 -410 -186 -381 -266 -751 -252 -1165 10 -278
45 -473 129 -725 293 -882 1054 -1524 1988 -1676 196 -32 556 -33 750 -1 492
81 895 269 1276 595 382 327 678 820 788 1313 49 216 60 325 60 554 -1 230
-15 366 -60 564 -72 324 -235 676 -434 942 -396 526 -969 870 -1625 974 -126
20 -468 35 -570 24z m406 -144 c566 -57 1059 -288 1455 -684 189 -190 328
-384 447 -624 460 -928 263 -2033 -489 -2752 -437 -416 -1020 -650 -1624 -650
-1093 0 -2046 755 -2298 1821 -44 185 -56 303 -57 549 0 260 11 358 67 575
125 487 422 945 814 1257 83 66 271 191 364 241 242 133 581 234 885 266 117
12 318 12 436 1z"/>
<path d="M2211 4495 c-326 -50 -646 -183 -911 -378 -109 -81 -276 -239 -362
-344 -144 -177 -275 -410 -343 -616 -42 -124 -43 -162 -5 -162 22 0 28 10 65
121 223 661 767 1142 1460 1290 122 27 145 28 380 28 277 1 341 -7 553 -69
285 -82 560 -239 768 -437 44 -42 69 -46 88 -15 9 16 2 27 -54 79 -257 238
-589 407 -953 484 -106 22 -152 26 -357 29 -171 3 -261 0 -329 -10z"/>
<path d="M3982 3808 c-19 -19 -15 -32 29 -82 45 -51 63 -56 79 -25 12 22 9 29
-44 87 -32 35 -45 39 -64 20z"/>
<path d="M2083 3789 c-145 -18 -379 -97 -423 -144 -36 -38 -3 -42 66 -7 110
55 328 112 429 112 122 0 83 -88 -148 -329 -72 -75 -208 -215 -302 -311 -189
-193 -245 -257 -299 -342 -40 -63 -45 -94 -18 -102 26 -9 86 12 277 96 192 85
287 119 404 144 68 15 85 15 106 4 83 -44 179 45 159 148 -6 29 -4 31 32 37
22 4 59 13 83 21 25 8 46 14 48 14 2 0 -4 -16 -12 -36 -8 -20 -15 -63 -15 -96
0 -52 3 -63 29 -89 21 -21 39 -29 64 -29 59 0 170 67 281 169 l39 36 -7 -35
c-48 -244 -47 -339 4 -355 45 -14 76 18 283 297 113 152 133 188 102 188 -18
0 -82 -78 -219 -269 -112 -156 -141 -185 -158 -160 -13 20 0 147 27 258 25
102 115 373 140 421 18 34 15 34 265 56 183 16 215 23 193 45 -8 8 -63 7 -208
-6 -108 -9 -199 -14 -202 -11 -3 3 13 46 35 96 45 98 50 120 28 120 -19 0 -48
-42 -96 -140 -26 -51 -49 -84 -63 -89 -12 -5 -67 -15 -123 -21 -109 -13 -136
-22 -118 -40 8 -8 40 -8 117 1 59 7 110 10 113 6 3 -3 -14 -66 -39 -139 l-46
-133 -98 -93 c-107 -102 -221 -170 -263 -157 -38 12 -56 101 -22 111 106 33
192 124 192 204 0 65 -100 55 -158 -16 -34 -41 -149 -84 -226 -84 -71 0 -82
-9 -62 -48 22 -43 20 -94 -5 -126 -24 -31 -39 -34 -32 -6 5 17 0 20 -26 20
-38 0 -40 16 -10 95 23 61 63 115 85 115 8 0 14 9 14 20 0 28 -32 26 -67 -4
-38 -32 -84 -127 -92 -189 l-6 -49 -113 -28 c-136 -35 -170 -47 -391 -144 -95
-42 -179 -76 -187 -76 -13 0 -12 4 1 29 27 54 116 152 393 435 292 299 392
415 418 483 38 98 -22 140 -173 122z m592 -559 c16 -26 -91 -140 -132 -140
-23 0 38 101 77 128 37 24 46 27 55 12z"/>
<path d="M4137 3604 c-15 -15 -6 -43 34 -112 47 -81 60 -95 82 -86 32 12 27
38 -21 118 -45 76 -74 101 -95 80z"/>
<path d="M4287 3323 c-13 -12 -7 -38 29 -128 138 -349 163 -790 68 -1170 -117
-463 -409 -875 -809 -1140 -247 -164 -502 -263 -801 -309 -134 -21 -412 -21
-551 0 -754 112 -1367 642 -1586 1374 -62 204 -71 276 -72 559 -1 225 -3 256
-18 265 -13 8 -21 6 -34 -7 -16 -16 -18 -42 -18 -260 0 -247 6 -307 46 -472
125 -509 434 -945 871 -1229 568 -369 1318 -419 1937 -130 352 165 665 445
874 784 313 508 375 1175 162 1745 -20 55 -42 106 -47 113 -11 13 -40 16 -51
5z"/>
<path d="M1833 2710 c-147 -52 -315 -215 -403 -390 -49 -98 -72 -177 -72 -250
0 -76 16 -123 53 -154 45 -38 97 -41 238 -12 220 46 267 33 259 -70 -6 -67
-16 -79 -137 -153 -103 -63 -205 -160 -217 -205 -15 -63 33 -98 102 -76 54 18
163 132 220 230 26 45 62 92 78 104 26 19 261 146 270 146 2 0 -5 -35 -15 -77
-52 -216 -39 -355 30 -338 37 9 61 34 175 184 l101 134 6 -37 c8 -51 39 -80
84 -79 63 2 105 59 105 142 l0 49 42 7 c23 4 66 16 95 26 29 10 53 15 53 11 0
-4 -12 -41 -26 -82 -24 -70 -54 -196 -54 -224 0 -23 25 -47 42 -41 8 3 47 67
84 142 38 74 83 152 101 172 l32 36 34 -39 c30 -35 36 -38 72 -34 22 3 47 8
56 12 15 6 16 0 12 -56 -3 -51 -1 -69 16 -95 36 -58 97 -56 200 5 69 40 264
218 258 235 -9 27 -33 13 -117 -68 -182 -172 -298 -216 -316 -120 -7 42 5 61
47 70 36 8 132 94 148 134 7 16 11 44 9 62 -3 32 -5 34 -46 37 -41 3 -46 0
-115 -66 -129 -124 -164 -136 -200 -72 -11 19 -24 38 -29 41 -35 22 -104 -48
-169 -172 -47 -88 -50 -91 -46 -53 3 23 25 93 50 155 53 134 58 152 36 157
-10 2 -22 -11 -33 -36 -16 -36 -23 -40 -99 -64 -45 -15 -110 -30 -144 -33 -67
-7 -72 -13 -48 -55 20 -35 18 -69 -5 -107 -33 -55 -90 -40 -90 22 0 71 68 195
106 195 22 0 13 34 -10 38 -27 6 -109 -86 -238 -267 -120 -167 -171 -226 -188
-216 -34 21 6 243 86 483 57 169 76 216 94 227 5 3 102 14 215 25 112 10 209
21 215 25 43 27 -48 32 -235 14 -61 -6 -125 -9 -142 -7 l-32 3 39 87 c48 107
53 145 13 120 -7 -4 -38 -57 -70 -117 l-58 -110 -91 -11 c-142 -17 -164 -23
-164 -41 0 -17 7 -17 173 3 71 8 71 10 14 -153 l-43 -122 -119 -62 c-66 -34
-124 -66 -129 -70 -6 -5 -17 -9 -26 -9 -13 0 -16 11 -16 49 0 59 -23 97 -69
117 -47 19 -65 18 -233 -16 -99 -19 -158 -27 -177 -22 -125 34 -86 288 77 506
164 218 433 324 514 202 50 -77 -53 -288 -168 -347 -40 -21 -46 -42 -12 -47
33 -5 108 52 148 112 114 173 114 313 -1 362 -45 19 -138 16 -200 -6z m1625
-725 c3 -11 -17 -37 -53 -71 -56 -53 -85 -67 -85 -41 0 19 52 89 86 116 31 24
47 23 52 -4z m-1628 -333 c0 -17 -60 -102 -99 -141 -22 -22 -58 -49 -80 -60
-34 -18 -41 -19 -51 -6 -22 27 36 92 153 172 63 43 77 49 77 35z"/>
</g>
</svg>
