<?xml version="1.0" standalone="no"?>
<!DOCTYPE svg PUBLIC "-//W3C//DTD SVG 20010904//EN"
 "http://www.w3.org/TR/2001/REC-SVG-20010904/DTD/svg10.dtd">
<svg version="1.0" xmlns="http://www.w3.org/2000/svg"
 width="140px" height="140px" viewBox="0 0 1500.000000 1500.000000"
 preserveAspectRatio="xMidYMid meet">

<g transform="translate(0.000000,1500.000000) scale(0.100000,-0.100000)"
fill="#000000" stroke="none">
<path d="M7195 14989 c-974 -44 -2027 -319 -2897 -755 -1200 -601 -2175 -1463
-2910 -2570 -684 -1030 -1087 -2183 -1203 -3444 -22 -239 -30 -774 -16 -1030
62 -1077 318 -2032 800 -2975 275 -538 578 -991 980 -1464 158 -186 601 -629
795 -794 470 -402 951 -723 1491 -997 1598 -810 3433 -1012 5175 -570 1880
478 3518 1699 4527 3375 577 958 912 1980 1030 3145 26 251 26 1073 0 1335
-75 762 -235 1423 -509 2105 -749 1859 -2249 3362 -4099 4108 -1003 404 -2060
582 -3164 531z m725 -149 c1038 -56 1961 -295 2859 -740 757 -375 1383 -828
1983 -1436 1126 -1140 1846 -2640 2032 -4229 57 -483 64 -1056 21 -1524 -216
-2314 -1520 -4374 -3529 -5578 -252 -151 -730 -389 -986 -491 -1074 -427
-2151 -593 -3290 -506 -926 70 -1833 321 -2675 742 -2010 1003 -3461 2904
-3889 5097 -397 2033 80 4118 1317 5760 223 295 404 503 682 780 572 573 1172
1006 1885 1363 558 280 1069 463 1665 596 613 137 1326 198 1925 166z"/>
<path d="M7580 14480 c-46 -46 -9 -100 69 -100 40 0 53 4 65 22 36 51 3 98
-69 98 -32 0 -51 -6 -65 -20z"/>
<path d="M7216 14477 c-24 -17 -24 -67 0 -84 27 -20 107 -17 127 5 21 23 22
56 1 76 -19 20 -103 21 -128 3z"/>
<path d="M7970 14482 c-22 -7 -40 -33 -40 -58 0 -33 37 -54 92 -54 37 0 50 5
62 22 20 29 20 41 -1 66 -18 20 -83 34 -113 24z"/>
<path d="M6876 14460 c-33 -10 -46 -25 -46 -57 0 -34 27 -53 73 -53 54 0 87
22 87 59 0 52 -44 72 -114 51z"/>
<path d="M8312 14438 c-14 -14 -16 -57 -3 -77 5 -7 30 -17 56 -22 38 -7 53 -6
72 6 28 19 31 65 5 88 -22 20 -112 23 -130 5z"/>
<path d="M6486 14399 c-31 -25 -33 -52 -5 -80 17 -17 27 -19 67 -13 26 3 55
13 65 22 21 19 22 55 1 76 -23 24 -95 21 -128 -5z"/>
<path d="M8677 14383 c-39 -44 -11 -87 65 -98 39 -6 49 -4 67 14 26 26 26 42
3 71 -26 32 -110 40 -135 13z"/>
<path d="M6153 14353 c-25 -5 -53 -38 -53 -64 0 -33 36 -52 87 -46 73 8 104
56 63 97 -19 19 -47 23 -97 13z"/>
<path d="M9036 14309 c-20 -30 -20 -42 2 -68 12 -15 33 -23 68 -27 46 -6 53
-4 68 17 20 30 20 42 -1 68 -13 15 -34 23 -69 27 -46 6 -53 4 -68 -17z"/>
<path d="M5803 14269 c-44 -13 -70 -52 -55 -84 14 -31 42 -38 91 -25 70 19 91
60 51 100 -22 22 -37 23 -87 9z"/>
<path d="M9397 14225 c-38 -37 -13 -85 55 -103 49 -13 82 3 86 44 4 39 -22 62
-79 70 -35 5 -49 2 -62 -11z"/>
<path d="M5455 14168 c-63 -22 -84 -68 -48 -103 21 -21 97 -14 125 12 25 23
23 68 -4 87 -26 18 -32 18 -73 4z"/>
<path d="M9747 14115 c-38 -37 -14 -82 56 -105 32 -10 42 -9 62 4 34 22 34 70
0 92 -38 25 -98 29 -118 9z"/>
<path d="M7520 13986 c0 -96 5 -111 34 -100 13 5 16 23 16 100 0 94 0 94 -25
94 -25 0 -25 0 -25 -94z"/>
<path d="M5111 14046 c-19 -7 -44 -24 -54 -39 -19 -24 -19 -27 -4 -51 23 -35
48 -39 100 -17 61 26 73 63 33 98 -31 26 -29 26 -75 9z"/>
<path d="M6892 14042 c-16 -3 -21 -9 -18 -20 3 -9 8 -52 12 -94 6 -74 8 -78
31 -78 24 0 24 0 17 78 -10 106 -14 118 -42 114z"/>
<path d="M8169 14028 c0 -13 -3 -55 -7 -95 -7 -69 -7 -72 14 -76 20 -4 23 1
28 45 3 26 9 71 12 98 6 49 5 50 -20 50 -20 0 -26 -5 -27 -22z"/>
<path d="M10108 13996 c-26 -13 -36 -59 -17 -82 14 -17 73 -44 95 -44 21 0 54
37 54 60 0 44 -88 88 -132 66z"/>
<path d="M8797 13868 c-9 -50 -16 -93 -14 -94 1 -1 11 -4 23 -8 18 -6 21 1 37
82 22 112 22 112 -6 112 -22 0 -25 -7 -40 -92z"/>
<path d="M6243 13942 c-9 -6 -7 -29 8 -97 11 -49 22 -91 24 -93 2 -2 12 -1 23
2 17 6 19 12 12 44 -5 20 -13 63 -20 95 -11 55 -21 65 -47 49z"/>
<path d="M4760 13898 c-37 -19 -46 -29 -48 -54 -2 -20 4 -36 18 -49 18 -16 25
-17 61 -6 68 20 97 65 67 103 -22 28 -51 29 -98 6z"/>
<path d="M10442 13853 c-7 -3 -18 -16 -23 -30 -13 -34 7 -64 59 -87 47 -21 64
-17 88 18 15 24 15 28 -1 52 -24 38 -87 62 -123 47z"/>
<path d="M9418 13713 c-24 -86 -23 -102 7 -103 13 0 69 166 60 180 -3 5 -14
10 -24 10 -13 0 -23 -20 -43 -87z"/>
<path d="M5623 13779 l-22 -8 30 -90 c17 -50 34 -91 37 -91 4 0 14 4 21 9 13
8 12 21 -9 88 -31 102 -31 102 -57 92z"/>
<path d="M4425 13737 c-46 -26 -58 -66 -29 -98 22 -24 35 -24 84 1 48 24 63
50 51 83 -16 43 -48 47 -106 14z"/>
<path d="M10756 13667 c-21 -31 -10 -63 31 -87 61 -36 113 -23 113 30 0 33 -8
44 -47 64 -45 23 -80 20 -97 -7z"/>
<path d="M10051 13568 c-5 -13 -20 -51 -35 -85 -31 -75 -32 -79 -7 -86 16 -4
25 9 55 78 20 46 36 86 36 89 0 3 -9 10 -20 16 -17 9 -22 7 -29 -12z"/>
<path d="M4095 13560 c-39 -26 -50 -56 -30 -86 24 -36 63 -35 113 2 34 26 43
69 20 92 -18 18 -69 13 -103 -8z"/>
<path d="M7295 13560 c-1197 -59 -2335 -467 -3290 -1181 -870 -649 -1543
-1513 -1959 -2513 -672 -1614 -594 -3478 211 -5026 564 -1086 1445 -1978 2509
-2542 322 -171 572 -278 934 -399 780 -260 1586 -353 2415 -279 1272 114 2462
629 3426 1481 577 510 1071 1156 1404 1834 355 724 549 1452 606 2270 15 214
6 743 -16 950 -117 1120 -500 2110 -1158 2995 -242 326 -588 699 -887 956
-890 767 -1964 1251 -3125 1409 -310 42 -750 60 -1070 45z m775 -66 c753 -60
1506 -274 2195 -624 246 -125 349 -185 575 -335 337 -223 592 -429 873 -705
340 -333 599 -647 843 -1021 518 -797 826 -1671 929 -2644 22 -205 31 -762 16
-980 -23 -322 -68 -632 -137 -930 -548 -2391 -2539 -4217 -4965 -4554 -289
-40 -484 -53 -814 -54 -335 -1 -534 12 -835 54 -1523 213 -2926 1030 -3869
2253 -512 665 -861 1382 -1061 2178 -576 2294 260 4699 2135 6147 657 507
1359 850 2175 1060 361 93 722 145 1205 175 112 7 549 -5 735 -20z"/>
<path d="M7406 13044 c-9 -8 -16 -21 -16 -27 0 -7 31 -169 69 -360 44 -228 73
-352 82 -358 21 -13 55 -11 67 4 12 14 142 666 142 709 0 44 -14 48 -176 48
-125 0 -155 -3 -168 -16z m233 -91 c0 -5 -15 -82 -33 -173 l-33 -165 -11 55
c-7 30 -23 108 -36 173 l-23 117 68 0 c38 0 69 -3 68 -7z"/>
<path d="M7055 12888 c-44 -25 -175 -130 -185 -148 -5 -10 -7 -26 -4 -34 3 -9
101 -101 217 -206 222 -201 242 -213 273 -165 16 25 14 30 -106 278 -108 223
-146 288 -169 287 -3 0 -15 -6 -26 -12z m48 -210 c20 -45 36 -82 35 -84 -2 -1
-34 26 -73 61 l-70 63 25 21 c14 11 30 20 35 21 6 0 27 -37 48 -82z"/>
<path d="M8047 12888 c-23 -18 -257 -497 -257 -529 0 -31 17 -49 46 -49 28 0
454 383 454 408 0 9 -4 22 -8 28 -11 16 -197 154 -208 154 -6 0 -18 -6 -27
-12z m83 -149 l25 -21 -70 -63 c-38 -35 -71 -62 -73 -60 -5 5 78 165 86 165 4
-1 18 -10 32 -21z"/>
<path d="M6634 12160 c-30 -12 -27 -8 -351 -560 -677 -1154 -695 -1187 -733
-1300 -31 -93 -39 -264 -16 -357 33 -133 140 -286 255 -364 34 -23 49 -39 45
-50 -5 -18 -503 -1101 -508 -1106 -2 -2 -157 40 -346 92 -189 53 -352 95 -364
93 -22 -3 -43 -46 -33 -70 3 -8 97 -57 209 -108 111 -51 255 -118 318 -147
464 -219 981 -453 997 -453 23 0 53 30 53 52 0 23 -26 42 -325 243 -154 103
-282 189 -284 191 -2 2 505 1113 512 1120 1 2 29 -4 62 -12 76 -19 244 -21
315 -4 198 45 375 210 459 428 101 263 641 1841 641 1874 0 20 -9 38 -27 55
-30 26 -818 393 -843 392 -8 0 -25 -4 -36 -9z m423 -275 c240 -111 377 -179
376 -188 -2 -7 -100 -294 -218 -637 -437 -1266 -426 -1236 -510 -1348 -55 -73
-145 -143 -219 -171 -315 -118 -751 95 -848 412 -17 58 -20 86 -15 166 9 176
-16 129 824 1559 124 210 226 382 228 382 2 0 174 -79 382 -175z m-1097 -2416
c0 -5 -119 -270 -265 -587 -146 -317 -265 -582 -265 -589 0 -12 19 -32 65 -68
11 -8 -5 -4 -35 9 -78 34 -209 99 -185 91 10 -3 38 -9 61 -12 39 -5 44 -3 61
24 10 17 133 281 273 586 194 423 259 556 273 557 9 0 17 -5 17 -11z"/>
<path d="M7072 11318 c-5 -7 -13 -23 -17 -36 -8 -27 35 -293 47 -286 13 8 46
126 48 174 5 85 0 129 -16 144 -19 19 -48 21 -62 4z"/>
<path d="M6617 11223 c-13 -12 -7 -54 13 -93 11 -22 25 -63 32 -92 l11 -53 13
35 c21 58 18 153 -7 184 -19 25 -48 34 -62 19z"/>
<path d="M6806 11171 c-10 -11 -23 -54 -31 -104 -8 -47 -23 -103 -34 -124 -27
-54 -92 -110 -142 -123 -115 -31 -284 44 -371 164 -31 43 -52 56 -80 48 -24
-6 -385 -627 -417 -717 -35 -100 -40 -222 -13 -312 67 -218 295 -383 552 -400
210 -14 376 85 468 277 87 184 260 679 287 825 15 77 15 93 1 174 -32 183
-103 311 -173 311 -17 0 -37 -8 -47 -19z m110 -260 c25 -111 16 -197 -41 -371
-72 -221 -203 -568 -240 -635 -44 -78 -105 -137 -180 -172 -52 -24 -72 -28
-150 -28 -196 1 -388 113 -467 273 -30 61 -33 75 -33 157 1 66 6 105 22 147
17 47 305 557 336 596 8 10 13 8 24 -7 21 -31 156 -117 215 -137 77 -27 208
-26 269 2 95 44 179 155 196 257 6 39 6 39 19 16 7 -13 21 -57 30 -98z"/>
<path d="M6172 10753 c-22 -9 -34 -41 -22 -63 18 -34 48 -44 76 -25 53 34 6
112 -54 88z"/>
<path d="M5996 10507 c-26 -19 -18 -68 14 -84 49 -24 92 37 54 78 -20 22 -43
24 -68 6z"/>
<path d="M6342 10378 c-31 -31 0 -92 46 -86 61 7 59 90 -3 96 -17 2 -36 -3
-43 -10z"/>
<path d="M6636 10274 c-40 -40 7 -110 58 -86 32 14 38 46 14 77 -22 29 -49 32
-72 9z"/>
<path d="M5996 10084 c-34 -34 -8 -84 44 -84 47 0 64 46 30 80 -24 24 -53 26
-74 4z"/>
<path d="M6371 9976 c-22 -26 -9 -69 22 -80 36 -13 61 2 65 38 4 35 -14 56
-48 56 -15 0 -33 -6 -39 -14z"/>
<path d="M8090 11997 c-206 -96 -394 -184 -417 -195 -46 -24 -63 -47 -63 -85
0 -35 616 -1817 665 -1925 84 -184 256 -331 434 -372 93 -22 263 -14 362 16
12 3 70 -114 274 -557 146 -318 254 -564 248 -567 -5 -4 -133 -90 -284 -191
-296 -199 -319 -216 -319 -241 0 -22 31 -50 55 -50 16 0 379 165 1125 512 416
193 395 182 398 211 4 33 -13 57 -40 57 -15 0 -344 -89 -688 -187 -12 -3 -76
127 -274 557 -142 309 -256 562 -254 564 122 85 190 156 245 253 93 167 99
376 17 574 -26 63 -188 345 -677 1179 -179 305 -336 567 -349 583 -45 54 -51
53 -458 -136z m712 -487 c731 -1245 716 -1218 726 -1391 4 -80 1 -109 -16
-165 -105 -346 -595 -554 -906 -386 -70 38 -164 136 -213 223 -44 78 -95 218
-433 1200 -111 321 -213 614 -225 651 l-23 66 376 175 c208 97 381 175 385
173 5 -1 153 -247 329 -546z m683 -2596 c142 -311 266 -575 274 -586 11 -17
21 -19 55 -15 23 3 51 9 61 12 22 6 -60 -35 -167 -83 -75 -34 -86 -35 -33 -2
19 12 37 31 40 43 4 15 -77 202 -260 599 -146 318 -265 582 -265 588 0 5 8 10
18 10 13 0 79 -135 277 -566z"/>
<path d="M8064 11355 c-14 -21 -16 -42 -11 -113 5 -78 28 -174 47 -195 7 -8
35 128 47 225 11 92 -42 145 -83 83z"/>
<path d="M8471 11204 c-24 -31 -28 -97 -10 -170 12 -47 29 -44 29 5 0 13 12
49 26 81 14 32 24 68 22 81 -5 35 -41 37 -67 3z"/>
<path d="M8283 11145 c-107 -45 -183 -340 -138 -532 36 -152 217 -657 288
-802 95 -195 262 -292 478 -278 163 10 329 87 441 204 155 163 181 387 69 604
-56 110 -362 633 -375 641 -21 15 -56 8 -74 -14 -49 -64 -133 -137 -187 -163
-83 -39 -193 -46 -252 -17 -79 41 -126 120 -143 243 -16 110 -44 140 -107 114z
m26 -231 c28 -103 128 -208 225 -236 133 -37 283 5 422 119 31 25 59 41 64 36
26 -30 319 -550 339 -603 19 -51 25 -85 25 -155 1 -81 -2 -97 -30 -155 -55
-116 -175 -214 -319 -261 -104 -35 -239 -34 -317 3 -71 33 -146 102 -181 165
-42 79 -184 456 -265 708 -46 143 -51 267 -13 385 25 80 27 80 50 -6z"/>
<path d="M8922 10744 c-30 -20 -29 -59 2 -79 46 -31 102 25 71 71 -18 28 -41
31 -73 8z"/>
<path d="M9087 10502 c-24 -27 -21 -59 8 -78 23 -15 27 -15 50 0 46 30 26 96
-28 96 -8 0 -21 -8 -30 -18z"/>
<path d="M8733 10378 c-30 -39 -12 -88 32 -88 45 0 73 58 43 88 -16 16 -63 15
-75 0z"/>
<path d="M8447 10272 c-26 -28 -22 -70 8 -84 52 -23 100 46 59 86 -21 21 -47
20 -67 -2z"/>
<path d="M9092 10093 c-22 -9 -33 -40 -22 -67 17 -47 100 -27 100 24 0 36 -40
59 -78 43z"/>
<path d="M8701 9976 c-17 -20 -10 -67 11 -80 28 -17 72 4 76 37 4 36 -13 57
-48 57 -15 0 -33 -6 -39 -14z"/>
<path d="M6336 6837 c-131 -309 -241 -568 -243 -574 -4 -10 12 -13 60 -13 l65
0 17 43 c9 23 51 122 92 220 l75 177 173 0 173 0 75 -178 c42 -98 83 -197 93
-220 l16 -42 65 0 c48 0 64 3 60 13 -11 29 -479 1132 -481 1134 -1 1 -109
-251 -240 -560z m351 -9 c5 -16 -5 -18 -112 -18 -107 0 -117 2 -112 18 3 9 29
76 59 147 l53 130 53 -130 c30 -71 56 -138 59 -147z"/>
<path d="M4730 6800 l0 -550 65 0 65 0 0 245 0 245 295 0 295 0 0 -245 0 -245
65 0 65 0 0 550 0 550 -65 0 -65 0 0 -240 0 -240 -295 0 -295 0 0 240 0 240
-65 0 -65 0 0 -550z"/>
<path d="M7530 6800 l0 -550 65 0 65 0 0 244 0 243 141 5 c135 5 143 7 207 39
106 54 152 136 152 273 0 84 -23 138 -80 190 -93 84 -173 106 -387 106 l-163
0 0 -550z m395 403 c79 -42 118 -110 105 -185 -11 -56 -37 -89 -100 -120 -49
-25 -63 -28 -162 -28 l-108 0 0 181 0 181 113 -4 c89 -3 120 -8 152 -25z"/>
<path d="M8590 6800 l0 -550 65 0 65 0 0 244 0 243 133 6 c154 6 206 21 270
77 64 56 91 124 92 225 0 93 -18 138 -77 197 -83 83 -174 108 -390 108 l-158
0 0 -550z m365 414 c136 -47 177 -185 82 -280 -52 -52 -94 -64 -219 -64 l-98
0 0 180 0 180 93 0 c60 0 110 -6 142 -16z"/>
<path d="M9770 7015 l200 -336 0 -214 0 -215 80 0 80 0 0 211 0 211 154 261
c85 144 175 297 200 340 l46 77 -80 0 -79 0 -133 -222 c-72 -123 -144 -247
-160 -277 l-28 -53 -15 33 c-8 19 -79 142 -158 274 l-143 240 -81 3 -82 3 199
-336z"/>
<path d="M8210 5067 l0 -577 65 0 65 0 0 419 0 420 48 -52 c94 -102 705 -753
743 -792 l39 -40 0 573 0 572 -65 0 -66 0 3 -429 3 -428 -40 46 c-32 36 -701
766 -776 846 -19 19 -19 5 -19 -558z"/>
<path d="M6310 5599 c-227 -28 -413 -197 -471 -430 -87 -343 183 -689 538
-689 162 0 288 52 403 169 226 227 226 555 0 782 -132 134 -289 190 -470 168z
m185 -135 c164 -42 288 -182 318 -359 39 -228 -127 -457 -361 -497 -286 -49
-544 212 -494 502 44 259 288 419 537 354z"/>
<path d="M4760 5041 l0 -551 65 0 65 0 0 245 0 245 98 0 c168 0 254 25 321 92
57 56 76 110 76 214 0 83 -2 94 -30 139 -37 60 -95 106 -172 136 -51 21 -79
24 -240 27 l-183 4 0 -551z m351 419 c50 -14 99 -49 127 -90 20 -29 23 -45 20
-91 -5 -71 -35 -114 -102 -145 -44 -20 -66 -24 -158 -24 l-108 0 0 180 0 180
93 0 c50 0 108 -5 128 -10z"/>
<path d="M7490 5040 l0 -550 65 0 65 0 0 550 0 550 -65 0 -65 0 0 -550z"/>
<path d="M9620 5530 l0 -60 185 0 185 0 0 -490 0 -490 65 0 65 0 0 490 0 490
185 0 185 0 0 60 0 60 -435 0 -435 0 0 -60z"/>
<path d="M7495 2966 c-91 -42 -107 -127 -42 -235 35 -60 39 -81 15 -81 -19 0
-78 -50 -93 -80 -19 -37 -19 -113 0 -149 32 -63 117 -108 180 -97 18 4 50 18
71 32 l38 26 18 -24 c9 -12 18 -26 18 -30 0 -13 17 -9 39 10 l22 17 -31 48
c-52 82 -35 187 30 187 16 0 20 7 20 30 0 30 0 30 -59 30 -63 0 -75 -8 -86
-53 -7 -26 -12 -21 -75 84 -79 129 -86 148 -65 189 18 35 57 48 99 31 26 -9
33 -9 44 6 18 25 15 39 -13 51 -43 20 -98 23 -130 8z m85 -442 c46 -73 46 -95
0 -119 -37 -19 -63 -19 -100 0 -59 31 -69 107 -21 156 48 47 72 40 121 -37z"/>
<path d="M6020 2636 l0 -306 35 0 35 0 0 135 0 135 165 0 165 0 0 -135 0 -135
35 0 35 0 -2 303 -3 302 -32 3 -33 3 0 -135 0 -136 -165 0 -164 0 -3 133 -3
132 -32 3 -33 3 0 -305z"/>
<path d="M8631 2932 c61 -152 266 -619 270 -614 8 8 249 579 257 605 4 16 0
18 -29 15 l-34 -3 -87 -205 c-48 -113 -92 -218 -98 -235 -10 -29 -16 -19 -110
205 l-99 235 -36 3 c-21 2 -36 -1 -34 -6z"/>
<path d="M5003 13554 c-12 -5 56 -176 73 -181 5 -1 15 1 23 6 12 8 8 24 -22
93 -34 79 -47 93 -74 82z"/>
<path d="M11083 13498 c-31 -41 -18 -80 36 -108 22 -11 46 -20 54 -20 22 0 47
34 47 63 0 49 -109 100 -137 65z"/>
<path d="M3774 13356 c-35 -31 -38 -36 -29 -62 6 -17 21 -33 38 -38 23 -8 34
-5 69 20 48 33 60 71 33 98 -26 26 -68 19 -111 -18z"/>
<path d="M10601 13224 c-35 -70 -41 -88 -30 -95 8 -5 17 -9 21 -9 4 0 27 37
52 83 41 74 44 83 29 95 -9 6 -19 12 -22 12 -3 0 -26 -39 -50 -86z"/>
<path d="M11385 13286 c-20 -30 -10 -58 35 -91 40 -30 71 -32 93 -7 31 34 19
71 -33 106 -36 24 -77 21 -95 -8z"/>
<path d="M4427 13268 c-14 -12 -11 -21 30 -95 26 -46 49 -83 52 -83 3 0 13 5
21 10 13 8 8 23 -30 95 -25 47 -48 85 -51 85 -3 0 -13 -6 -22 -12z"/>
<path d="M3475 13149 c-39 -35 -45 -67 -17 -92 26 -23 51 -21 94 8 45 30 55
58 34 90 -23 35 -66 33 -111 -6z"/>
<path d="M11690 13080 c-29 -29 -25 -48 20 -92 46 -43 71 -47 100 -18 34 34
26 64 -30 105 -41 30 -64 31 -90 5z"/>
<path d="M11151 12895 c-43 -62 -50 -79 -41 -90 7 -8 16 -15 20 -15 4 0 31 34
60 75 42 62 50 79 40 90 -7 8 -16 15 -19 15 -4 0 -31 -34 -60 -75z"/>
<path d="M3197 12935 c-40 -28 -55 -62 -38 -93 23 -44 86 -32 130 24 23 29 20
60 -7 82 -23 18 -43 15 -85 -13z"/>
<path d="M3877 12925 c-17 -12 -15 -18 35 -89 54 -77 65 -85 86 -64 9 9 0 27
-35 77 -64 92 -65 92 -86 76z"/>
<path d="M11982 12854 c-33 -23 -28 -61 14 -100 38 -37 73 -43 98 -18 35 35
12 90 -51 123 -28 14 -34 14 -61 -5z"/>
<path d="M2911 12686 c-38 -39 -44 -82 -15 -103 28 -20 50 -16 88 18 44 38 52
63 32 94 -24 37 -64 33 -105 -9z"/>
<path d="M12244 12595 c-20 -31 -12 -56 32 -94 48 -42 78 -41 103 6 15 29 16
28 -25 73 -44 48 -84 54 -110 15z"/>
<path d="M11661 12508 c-45 -56 -57 -76 -49 -86 18 -21 31 -11 92 61 48 56 56
70 46 82 -7 8 -16 15 -20 15 -5 0 -35 -33 -69 -72z"/>
<path d="M3360 12525 c-10 -12 -3 -25 39 -73 69 -81 74 -84 94 -69 15 11 10
20 -44 85 -33 39 -64 72 -69 72 -4 0 -13 -7 -20 -15z"/>
<path d="M2649 12431 c-42 -41 -49 -70 -23 -95 28 -29 59 -24 102 17 39 37 43
78 10 101 -33 23 -46 20 -89 -23z"/>
<path d="M12506 12338 c-23 -32 -20 -43 20 -88 39 -43 72 -51 98 -24 26 26 20
67 -17 102 -39 38 -79 42 -101 10z"/>
<path d="M2396 12160 c-38 -43 -44 -65 -23 -94 23 -31 67 -23 104 18 38 41 41
68 13 96 -30 30 -54 25 -94 -20z"/>
<path d="M12135 12076 c-67 -62 -69 -65 -52 -82 17 -18 20 -16 84 49 60 60 66
68 52 82 -13 13 -22 8 -84 -49z"/>
<path d="M2889 12084 c-10 -13 -2 -25 56 -84 65 -66 70 -69 87 -53 18 16 17
18 -9 46 -16 16 -49 46 -74 68 -41 34 -48 37 -60 23z"/>
<path d="M12757 12072 c-25 -28 -21 -57 14 -97 36 -40 76 -46 104 -15 22 25
15 55 -25 98 -35 36 -69 41 -93 14z"/>
<path d="M2164 11884 c-39 -40 -44 -81 -16 -107 28 -26 51 -21 88 19 41 43 45
85 12 108 -33 23 -47 20 -84 -20z"/>
<path d="M12986 11781 c-23 -25 -16 -57 20 -101 34 -40 80 -39 103 2 15 25 14
29 -15 70 -35 51 -78 62 -108 29z"/>
<path d="M12563 11599 c-64 -53 -72 -63 -63 -80 12 -22 7 -25 108 55 59 47 61
50 46 68 -10 10 -18 18 -18 18 -1 -1 -34 -28 -73 -61z"/>
<path d="M1935 11583 c-41 -61 -30 -113 25 -113 31 0 40 7 68 47 38 54 20 103
-38 103 -23 0 -35 -9 -55 -37z"/>
<path d="M2461 11591 c-9 -16 0 -27 65 -76 70 -54 76 -57 92 -42 8 9 14 18 11
20 -116 93 -147 117 -152 117 -4 0 -11 -8 -16 -19z"/>
<path d="M13218 11496 c-39 -20 -37 -73 6 -119 29 -31 66 -35 89 -9 23 26 21
51 -7 93 -28 42 -54 52 -88 35z"/>
<path d="M1755 11306 c-11 -8 -29 -30 -39 -50 -46 -86 52 -136 103 -52 26 41
27 78 3 99 -23 21 -41 21 -67 3z"/>
<path d="M13412 11184 c-29 -20 -28 -60 3 -107 32 -46 75 -51 101 -12 14 21
14 30 4 55 -15 36 -54 80 -72 80 -8 0 -24 -7 -36 -16z"/>
<path d="M12937 11079 c-69 -45 -76 -52 -66 -70 9 -18 13 -19 32 -6 12 7 50
30 84 51 55 34 61 40 50 57 -6 10 -14 19 -17 19 -3 0 -40 -23 -83 -51z"/>
<path d="M2092 11068 c-7 -7 -12 -16 -12 -20 0 -5 35 -30 77 -58 57 -36 81
-46 90 -38 21 17 16 25 -44 66 -86 58 -98 63 -111 50z"/>
<path d="M1558 10983 c-42 -48 -49 -100 -18 -128 27 -24 64 -13 89 29 23 37
27 86 9 104 -18 18 -63 15 -80 -5z"/>
<path d="M13592 10864 c-29 -20 -28 -60 3 -107 32 -46 75 -51 101 -12 16 24
16 28 -1 66 -18 39 -48 69 -70 69 -6 0 -21 -7 -33 -16z"/>
<path d="M1397 10669 c-39 -23 -62 -110 -35 -137 13 -13 57 -16 74 -4 18 11
44 69 44 96 0 14 -9 31 -22 40 -26 18 -36 19 -61 5z"/>
<path d="M13258 10527 c-43 -23 -78 -48 -78 -55 0 -27 31 -22 109 18 74 37 80
42 71 60 -6 11 -14 20 -18 19 -4 0 -42 -19 -84 -42z"/>
<path d="M13750 10530 c-24 -24 -24 -29 -4 -80 24 -60 74 -79 107 -42 22 24
21 44 -3 91 -28 55 -65 66 -100 31z"/>
<path d="M1769 10498 c-6 -11 -9 -21 -7 -23 2 -1 40 -21 85 -44 79 -39 83 -40
93 -22 9 18 1 24 -75 64 -82 43 -86 44 -96 25z"/>
<path d="M1225 10317 c-43 -66 -39 -120 9 -133 36 -9 62 11 81 61 16 42 16 46
1 70 -22 33 -69 34 -91 2z"/>
<path d="M13896 10194 c-20 -20 -20 -50 2 -94 37 -75 120 -58 109 23 -8 55
-32 87 -67 87 -15 0 -36 -7 -44 -16z"/>
<path d="M1097 9982 c-58 -64 -42 -147 27 -140 24 2 35 11 48 38 22 46 22 83
0 103 -24 22 -55 22 -75 -1z"/>
<path d="M13525 9945 c-82 -34 -90 -41 -76 -64 7 -11 25 -7 95 19 73 28 87 36
84 53 -2 11 -7 21 -13 23 -5 1 -46 -13 -90 -31z"/>
<path d="M1505 9899 c-8 -25 -17 -19 84 -57 84 -33 100 -32 101 4 0 9 -152 74
-173 74 -3 0 -9 -9 -12 -21z"/>
<path d="M14025 9850 c-17 -19 -18 -26 -6 -68 15 -59 27 -72 62 -72 32 0 59
23 59 51 0 26 -28 91 -43 101 -22 14 -54 8 -72 -12z"/>
<path d="M978 9633 c-41 -47 -38 -133 6 -141 52 -10 86 28 86 99 0 52 -59 79
-92 42z"/>
<path d="M14143 9505 c-27 -19 -29 -51 -9 -100 21 -49 51 -62 85 -37 21 16 26
27 24 58 -3 44 -31 88 -59 92 -10 1 -29 -5 -41 -13z"/>
<path d="M13735 9339 c-75 -22 -89 -30 -87 -45 2 -11 6 -21 8 -23 5 -5 167 40
178 50 6 5 6 16 0 27 -9 17 -13 17 -99 -9z"/>
<path d="M893 9288 c-40 -19 -56 -113 -25 -141 39 -36 78 -18 96 44 15 50 8
82 -23 98 -23 13 -20 13 -48 -1z"/>
<path d="M1303 9285 c-8 -22 -4 -24 89 -51 102 -29 98 -29 98 -1 0 21 -9 26
-79 45 -94 26 -100 27 -108 7z"/>
<path d="M14225 9140 c-13 -15 -16 -28 -10 -57 11 -61 31 -85 68 -81 43 4 60
39 46 94 -17 63 -67 85 -104 44z"/>
<path d="M811 8923 c-27 -22 -46 -96 -31 -123 19 -36 80 -37 99 -2 4 9 11 34
15 55 6 31 3 41 -18 62 -30 30 -37 31 -65 8z"/>
<path d="M14295 8776 c-19 -28 -12 -90 13 -118 17 -21 62 -24 80 -6 17 17 15
100 -4 126 -21 31 -69 30 -89 -2z"/>
<path d="M13868 8713 c-72 -14 -78 -17 -78 -40 0 -18 4 -23 18 -19 9 2 52 10
95 17 70 12 77 15 77 36 0 27 -4 27 -112 6z"/>
<path d="M1166 8654 c-3 -9 -6 -19 -6 -24 0 -7 174 -36 190 -32 5 1 13 42 8
42 -2 0 -41 7 -88 15 -104 18 -97 18 -104 -1z"/>
<path d="M736 8548 c-19 -26 -21 -109 -4 -126 16 -16 63 -15 81 2 23 24 30 95
12 122 -20 32 -68 32 -89 2z"/>
<path d="M14352 8415 c-38 -47 -8 -145 44 -145 37 0 54 26 54 81 0 80 -56 117
-98 64z"/>
<path d="M706 8197 c-28 -20 -34 -111 -11 -137 41 -45 89 -15 100 62 6 39 4
49 -14 67 -24 24 -49 27 -75 8z"/>
<path d="M13957 8079 c-49 -4 -91 -9 -93 -12 -3 -2 -2 -12 2 -21 7 -17 81 -22
157 -10 31 6 37 11 37 30 0 13 -3 23 -7 23 -5 -1 -48 -5 -96 -10z"/>
<path d="M14386 8054 c-16 -16 -22 -87 -10 -119 11 -27 53 -38 80 -20 20 13
24 24 24 70 0 60 -16 85 -55 85 -13 0 -31 -7 -39 -16z"/>
<path d="M1090 8003 c0 -23 38 -33 133 -33 43 0 59 4 64 15 3 9 3 19 0 22 -4
3 -49 8 -102 11 -90 4 -95 4 -95 -15z"/>
<path d="M680 7820 c-15 -15 -20 -33 -20 -69 0 -42 4 -53 26 -70 32 -26 36
-26 64 -3 34 27 40 112 11 141 -26 26 -55 27 -81 1z"/>
<path d="M14397 7692 c-13 -14 -17 -39 -17 -105 0 -74 3 -90 20 -107 25 -25
52 -26 73 -2 24 26 24 193 1 216 -21 21 -57 20 -77 -2z"/>
<path d="M13880 7540 c0 -19 7 -20 100 -20 93 0 100 1 100 20 0 19 -7 20 -100
20 -93 0 -100 -1 -100 -20z"/>
<path d="M682 7444 c-47 -32 -19 -134 37 -134 37 0 61 28 61 73 0 64 -50 95
-98 61z"/>
<path d="M1093 7373 c-7 -2 -13 -13 -13 -24 0 -17 8 -19 100 -19 l100 0 0 25
c0 25 -1 25 -87 24 -49 0 -94 -3 -100 -6z"/>
<path d="M14385 7246 c-11 -16 -15 -41 -13 -72 2 -40 7 -51 29 -63 24 -13 29
-13 53 2 23 15 26 24 26 72 0 35 -5 59 -16 69 -23 24 -61 20 -79 -8z"/>
<path d="M713 7099 c-26 -10 -38 -46 -30 -95 8 -47 23 -64 58 -64 42 0 63 37
55 94 -9 58 -39 82 -83 65z"/>
<path d="M13850 6927 c0 -23 4 -25 68 -31 37 -4 79 -9 95 -12 24 -5 27 -3 27
19 0 24 -4 26 -57 32 -32 3 -75 8 -95 11 -35 5 -38 4 -38 -19z"/>
<path d="M14357 6882 c-20 -22 -23 -112 -5 -130 14 -14 57 -16 77 -3 7 5 17
30 22 56 7 38 6 53 -6 72 -19 28 -65 31 -88 5z"/>
<path d="M1197 6737 c-62 -9 -67 -11 -61 -31 4 -11 8 -22 9 -24 1 -1 43 3 94
9 85 12 91 14 91 36 0 26 -15 28 -133 10z"/>
<path d="M735 6720 c-25 -27 -16 -107 15 -132 29 -23 45 -23 71 3 18 18 20 29
15 67 -10 76 -61 107 -101 62z"/>
<path d="M14317 6528 c-20 -16 -37 -87 -27 -114 12 -31 37 -47 65 -40 29 7 40
26 50 83 5 34 3 45 -14 62 -24 24 -50 27 -74 9z"/>
<path d="M802 6364 c-41 -28 -23 -138 24 -150 30 -8 62 11 70 40 10 40 -14
106 -42 116 -31 12 -25 13 -52 -6z"/>
<path d="M13750 6300 c0 -12 8 -22 23 -25 110 -25 160 -36 162 -33 1 2 5 12 9
24 6 20 0 22 -76 38 -107 21 -118 20 -118 -4z"/>
<path d="M14251 6163 c-26 -22 -43 -86 -31 -119 11 -28 50 -40 79 -25 19 11
41 65 41 104 0 20 -34 57 -54 57 -8 0 -24 -8 -35 -17z"/>
<path d="M1333 6108 c-46 -11 -83 -25 -83 -32 1 -32 15 -34 105 -14 50 12 92
22 93 24 8 6 -10 44 -21 43 -7 -1 -49 -10 -94 -21z"/>
<path d="M875 5999 c-23 -19 -26 -27 -20 -56 10 -54 26 -83 51 -89 28 -7 61
10 69 35 9 30 -13 98 -38 116 -28 19 -29 19 -62 -6z"/>
<path d="M14158 5803 c-9 -10 -21 -35 -28 -56 -10 -32 -9 -42 4 -62 16 -25 27
-29 56 -25 48 6 78 103 45 140 -22 25 -57 26 -77 3z"/>
<path d="M13596 5693 c-4 -9 -3 -20 1 -23 8 -7 162 -60 174 -60 4 0 9 11 11
24 5 22 -1 26 -82 50 -103 31 -96 30 -104 9z"/>
<path d="M965 5640 c-36 -40 2 -140 54 -140 26 0 61 26 61 46 0 24 -22 85 -36
99 -21 21 -57 19 -79 -5z"/>
<path d="M1510 5490 c-60 -22 -74 -32 -72 -46 2 -11 6 -21 8 -23 2 -2 44 11
94 29 67 24 90 37 86 47 -4 8 -6 17 -6 19 0 10 -41 1 -110 -26z"/>
<path d="M14057 5458 c-25 -20 -49 -96 -37 -119 27 -50 90 -43 109 12 17 51
14 86 -11 103 -27 19 -39 20 -61 4z"/>
<path d="M1083 5298 c-22 -28 -23 -55 -1 -98 21 -40 27 -45 58 -45 28 0 37 5
48 28 12 25 11 33 -10 75 -19 39 -28 48 -54 50 -17 2 -35 -3 -41 -10z"/>
<path d="M13375 5100 c-4 -12 -5 -23 -3 -24 1 -1 41 -19 88 -39 83 -35 99 -35
100 -1 0 9 -74 45 -167 81 -6 2 -14 -5 -18 -17z"/>
<path d="M13927 5108 c-33 -26 -49 -112 -25 -136 18 -18 63 -15 80 6 9 9 21
33 28 54 12 32 11 40 -4 62 -18 28 -52 34 -79 14z"/>
<path d="M1217 4952 c-21 -24 -21 -52 0 -97 18 -38 41 -50 78 -41 42 11 44 79
4 131 -24 29 -59 32 -82 7z"/>
<path d="M1760 4900 c-80 -38 -92 -51 -70 -73 4 -5 47 9 95 32 79 37 85 42 75
61 -6 11 -12 20 -13 20 -1 0 -40 -18 -87 -40z"/>
<path d="M13778 4763 c-42 -48 -49 -100 -19 -127 11 -10 30 -16 42 -14 29 4
69 62 69 99 0 52 -59 79 -92 42z"/>
<path d="M1383 4630 c-25 -10 -38 -48 -28 -78 21 -70 89 -95 121 -47 16 24 16
28 -1 66 -10 22 -28 47 -39 55 -23 16 -23 16 -53 4z"/>
<path d="M13096 4534 c-3 -9 -6 -17 -6 -19 0 -2 37 -24 82 -50 77 -45 82 -46
95 -29 16 22 15 24 -76 73 -83 46 -87 47 -95 25z"/>
<path d="M13624 4442 c-22 -14 -56 -91 -49 -112 8 -27 41 -43 71 -36 25 7 64
70 64 104 0 37 -54 65 -86 44z"/>
<path d="M2058 4334 c-75 -44 -94 -68 -64 -80 14 -5 150 68 161 86 6 10 -5 40
-14 40 -3 0 -41 -21 -83 -46z"/>
<path d="M1537 4292 c-22 -24 -21 -44 3 -92 22 -44 55 -59 89 -41 29 16 36 53
17 89 -32 63 -76 80 -109 44z"/>
<path d="M13420 4088 c-16 -22 -30 -51 -30 -63 0 -40 53 -69 86 -47 19 12 54
76 54 98 0 11 -8 28 -18 37 -31 28 -59 21 -92 -25z"/>
<path d="M12767 4003 c-17 -17 -1 -36 70 -84 72 -49 77 -51 90 -33 15 21 19
16 -70 77 -69 48 -79 52 -90 40z"/>
<path d="M1722 3978 c-33 -33 11 -130 62 -136 31 -4 66 21 66 47 0 18 -37 82
-54 93 -17 12 -61 9 -74 -4z"/>
<path d="M2410 3799 c-72 -56 -77 -63 -60 -84 10 -12 24 -5 86 42 49 37 73 61
69 70 -3 8 -5 17 -5 19 0 14 -33 -4 -90 -47z"/>
<path d="M13248 3810 c-29 -17 -61 -78 -54 -105 8 -30 40 -49 71 -41 28 7 65
63 65 98 0 44 -44 70 -82 48z"/>
<path d="M1932 3674 c-29 -20 -28 -51 3 -97 31 -44 68 -57 95 -32 29 26 25 65
-11 108 -33 40 -53 45 -87 21z"/>
<path d="M13014 3484 c-39 -41 -44 -82 -14 -109 27 -25 64 -12 95 32 31 46 32
77 3 97 -33 23 -47 20 -84 -20z"/>
<path d="M12379 3494 c-12 -14 -8 -21 26 -51 104 -89 112 -94 125 -78 6 8 10
18 8 23 -3 10 -134 122 -141 122 -3 0 -11 -7 -18 -16z"/>
<path d="M2146 3374 c-24 -24 -19 -56 15 -97 32 -39 62 -47 93 -24 26 19 23
61 -8 102 -30 39 -72 47 -100 19z"/>
<path d="M2807 3296 c-64 -59 -66 -63 -49 -79 16 -15 22 -12 90 50 58 52 70
68 61 79 -18 22 -30 17 -102 -50z"/>
<path d="M12783 3198 c-40 -44 -47 -66 -28 -94 23 -36 67 -32 104 9 35 37 40
76 13 100 -28 25 -55 21 -89 -15z"/>
<path d="M2380 3095 c-19 -23 -15 -61 11 -94 29 -36 62 -48 95 -32 35 16 32
61 -7 106 -34 38 -77 47 -99 20z"/>
<path d="M11951 3036 c-15 -18 3 -47 71 -114 43 -41 45 -42 61 -24 16 17 13
22 -52 86 -58 58 -69 65 -80 52z"/>
<path d="M12532 2917 c-40 -41 -42 -80 -7 -103 31 -20 56 -12 94 32 35 40 39
64 13 87 -29 26 -65 21 -100 -16z"/>
<path d="M3267 2848 c-62 -68 -65 -74 -49 -91 15 -17 19 -15 79 50 66 72 71
84 49 102 -11 9 -27 -3 -79 -61z"/>
<path d="M2630 2825 c-22 -27 -14 -65 21 -101 49 -51 112 -40 112 20 0 62 -99
122 -133 81z"/>
<path d="M12272 2657 c-38 -39 -42 -79 -10 -101 32 -23 43 -20 88 20 44 40 51
71 22 97 -29 26 -65 21 -100 -16z"/>
<path d="M11473 2623 c-7 -2 -13 -9 -13 -14 0 -13 109 -149 119 -149 5 0 14 6
20 14 8 10 -2 29 -46 85 -31 39 -59 71 -62 70 -3 0 -12 -3 -18 -6z"/>
<path d="M2909 2576 c-38 -18 -37 -62 2 -102 54 -55 119 -42 119 23 0 20 -53
76 -81 86 -9 3 -27 0 -40 -7z"/>
<path d="M3760 2440 c-50 -67 -59 -100 -27 -100 20 0 120 139 113 156 -11 28
-35 12 -86 -56z"/>
<path d="M12007 2418 c-40 -29 -52 -64 -32 -94 24 -36 69 -32 111 10 38 38 43
65 16 89 -25 23 -61 21 -95 -5z"/>
<path d="M3172 2328 c-23 -23 -14 -67 20 -99 52 -47 118 -32 118 26 0 52 -104
107 -138 73z"/>
<path d="M10956 2257 c-17 -12 -14 -19 35 -94 46 -72 55 -81 71 -72 11 6 17
16 15 23 -6 14 -97 156 -101 156 -1 0 -10 -6 -20 -13z"/>
<path d="M11715 2179 c-82 -72 -7 -149 81 -83 27 21 34 33 34 60 0 60 -59 72
-115 23z"/>
<path d="M4333 2148 c-34 -45 -84 -141 -79 -153 12 -32 36 -12 82 66 38 65 44
83 33 90 -19 12 -25 11 -36 -3z"/>
<path d="M3472 2104 c-33 -23 -29 -66 8 -97 42 -36 67 -41 95 -23 41 27 34 69
-17 106 -47 34 -55 36 -86 14z"/>
<path d="M11424 1968 c-37 -28 -44 -38 -44 -64 0 -25 29 -54 56 -54 30 0 93
48 100 76 14 57 -58 84 -112 42z"/>
<path d="M10402 1941 c-11 -6 -5 -26 27 -90 41 -81 46 -86 75 -75 12 5 8 20
-27 90 -41 83 -49 92 -75 75z"/>
<path d="M3772 1894 c-34 -24 -29 -68 11 -97 43 -32 65 -39 87 -27 49 26 46
71 -7 108 -42 29 -66 34 -91 16z"/>
<path d="M4859 1784 c-39 -86 -40 -103 -4 -104 8 0 52 86 83 161 2 4 -6 13
-18 19 -19 10 -23 5 -61 -76z"/>
<path d="M11112 1768 c-36 -22 -49 -56 -33 -87 20 -36 57 -37 104 -4 94 65 27
152 -71 91z"/>
<path d="M4076 1691 c-27 -30 -16 -62 32 -95 35 -25 47 -28 68 -20 61 21 57
82 -6 114 -49 25 -72 25 -94 1z"/>
<path d="M9833 1689 l-22 -8 34 -87 c19 -47 36 -88 38 -90 8 -8 37 8 37 20 0
7 -15 48 -33 93 -29 74 -34 80 -54 72z"/>
<path d="M5451 1539 c-17 -51 -30 -93 -28 -95 1 -1 11 -4 22 -8 18 -5 24 5 52
87 17 50 31 93 30 93 -1 1 -12 4 -23 8 -20 6 -25 -1 -53 -85z"/>
<path d="M10792 1580 c-47 -34 -53 -59 -22 -90 26 -26 46 -25 95 3 46 26 58
66 29 98 -24 27 -55 24 -102 -11z"/>
<path d="M4394 1505 c-21 -32 -11 -59 32 -84 62 -37 114 -24 114 29 0 33 -8
44 -47 64 -46 23 -80 20 -99 -9z"/>
<path d="M9223 1494 c-8 -4 -4 -31 13 -97 14 -50 26 -92 27 -94 8 -8 47 12 43
22 -2 6 -14 49 -26 93 -21 77 -28 87 -57 76z"/>
<path d="M6081 1413 c-42 -161 -41 -151 -18 -157 12 -3 23 -4 25 -2 8 9 42
171 38 183 -10 26 -35 13 -45 -24z"/>
<path d="M10469 1420 c-42 -22 -55 -55 -33 -87 27 -42 133 -17 146 35 16 59
-46 88 -113 52z"/>
<path d="M4732 1358 c-13 -13 -16 -57 -4 -74 11 -18 69 -44 96 -44 32 0 61 40
51 70 -14 45 -113 78 -143 48z"/>
<path d="M8601 1333 c0 -16 6 -59 13 -98 10 -61 14 -70 31 -67 11 2 22 5 24 7
3 4 -17 136 -25 168 -3 9 -14 17 -25 17 -14 0 -19 -7 -18 -27z"/>
<path d="M6706 1313 c-2 -10 -7 -45 -11 -78 -3 -33 -8 -67 -11 -76 -3 -11 3
-18 20 -21 27 -6 30 2 42 125 6 63 6 67 -14 67 -11 0 -23 -8 -26 -17z"/>
<path d="M7970 1252 c0 -21 3 -67 6 -101 6 -50 10 -61 25 -61 10 0 20 3 22 8
3 4 2 48 -2 97 -6 83 -8 90 -28 93 -21 3 -23 -1 -23 -36z"/>
<path d="M10128 1269 c-31 -16 -38 -25 -38 -49 0 -42 26 -63 69 -56 72 11 114
72 76 110 -22 21 -61 20 -107 -5z"/>
<path d="M7336 1234 c-3 -26 -6 -71 -6 -100 0 -51 1 -54 25 -54 l25 0 0 100
c0 91 -2 100 -19 100 -14 0 -20 -10 -25 -46z"/>
<path d="M5073 1219 c-7 -7 -13 -28 -13 -46 0 -30 5 -36 43 -53 53 -25 79 -25
101 -1 23 26 17 59 -15 83 -33 25 -100 34 -116 17z"/>
<path d="M9793 1145 c-60 -26 -66 -96 -10 -110 34 -9 100 18 116 47 13 23 13
29 -2 52 -20 30 -53 33 -104 11z"/>
<path d="M5421 1091 c-24 -24 -25 -34 -10 -63 12 -23 66 -48 103 -48 28 0 60
38 54 66 -4 24 -47 52 -90 59 -29 6 -40 3 -57 -14z"/>
<path d="M9437 1033 c-41 -17 -56 -48 -38 -81 15 -28 43 -35 91 -22 50 13 75
47 61 82 -15 41 -51 48 -114 21z"/>
<path d="M5789 996 c-31 -15 -38 -65 -11 -89 28 -26 104 -33 125 -12 18 18 22
52 8 73 -4 7 -28 19 -53 27 -35 10 -50 11 -69 1z"/>
<path d="M9100 948 c-48 -13 -60 -26 -60 -59 0 -31 23 -59 48 -59 37 0 92 22
102 40 30 57 -18 99 -90 78z"/>
<path d="M6136 908 c-23 -18 -24 -64 -3 -85 24 -24 109 -29 130 -8 22 22 22
58 -1 78 -26 24 -102 32 -126 15z"/>
<path d="M8720 871 c-29 -8 -50 -44 -43 -72 8 -29 40 -42 87 -35 48 8 76 31
76 61 0 45 -51 65 -120 46z"/>
<path d="M6508 846 c-30 -15 -36 -66 -11 -88 28 -24 95 -31 121 -12 26 18 30
65 7 84 -24 20 -91 29 -117 16z"/>
<path d="M8370 823 c-34 -7 -60 -32 -60 -59 0 -35 26 -54 76 -54 78 0 119 66
66 108 -16 12 -35 13 -82 5z"/>
<path d="M6856 789 c-34 -49 -6 -88 67 -96 36 -4 49 -1 66 16 44 44 12 91 -68
99 -42 4 -50 1 -65 -19z"/>
<path d="M7635 783 c-49 -12 -70 -66 -45 -112 14 -26 33 -31 77 -19 52 14 73
35 73 73 0 53 -38 74 -105 58z"/>
<path d="M7960 770 c-24 -24 -25 -38 -4 -68 20 -29 112 -32 137 -4 21 23 22
56 1 76 -23 24 -109 21 -134 -4z"/>
<path d="M7227 762 c-22 -24 -22 -65 1 -84 25 -23 91 -39 112 -28 34 18 41 87
12 113 -26 24 -104 23 -125 -1z"/>
</g>
</svg>
