<?xml version="1.0" standalone="no"?>
<!DOCTYPE svg PUBLIC "-//W3C//DTD SVG 20010904//EN"
 "http://www.w3.org/TR/2001/REC-SVG-20010904/DTD/svg10.dtd">
<svg version="1.0" xmlns="http://www.w3.org/2000/svg"
 width="100px" height="100px" viewBox="0 0 1500.000000 1500.000000"
 preserveAspectRatio="xMidYMid meet">

<g transform="translate(0.000000,1500.000000) scale(0.100000,-0.100000)"
fill="#000000" stroke="none">
<path d="M7160 12930 c-928 -61 -1816 -362 -2583 -874 -829 -553 -1499 -1341
-1891 -2223 -240 -541 -379 -1054 -443 -1633 -26 -234 -26 -823 0 -1065 160
-1495 904 -2808 2102 -3707 663 -497 1486 -846 2306 -977 861 -138 1778 -59
2569 221 792 280 1467 709 2051 1305 403 411 696 825 959 1358 255 516 407
1002 489 1562 69 469 69 1055 1 1525 -141 962 -540 1852 -1174 2618 -134 162
-456 489 -616 626 -825 705 -1808 1129 -2884 1245 -215 23 -677 33 -886 19z
m737 -115 c890 -72 1689 -345 2438 -833 479 -312 954 -760 1304 -1231 890
-1196 1219 -2673 921 -4140 -144 -710 -470 -1436 -909 -2026 -637 -855 -1519
-1496 -2511 -1826 -448 -149 -797 -218 -1275 -254 -821 -62 -1657 80 -2415
408 -551 238 -1031 553 -1490 978 -124 115 -346 350 -456 484 -920 1118 -1328
2564 -1129 4005 200 1455 1035 2774 2275 3595 763 505 1596 784 2530 848 141
10 551 5 717 -8z"/>
<path d="M7244 12573 c-40 -29 -12 -76 44 -71 68 6 69 70 1 76 -19 1 -39 -1
-45 -5z"/>
<path d="M7497 12574 c-11 -11 -8 -49 5 -62 17 -17 73 -15 88 2 6 8 10 25 8
38 -3 20 -10 23 -48 26 -25 2 -49 0 -53 -4z"/>
<path d="M7754 12556 c-10 -27 1 -50 27 -60 54 -19 101 16 77 58 -12 21 -96
23 -104 2z"/>
<path d="M6976 12545 c-19 -20 -20 -26 -3 -49 17 -23 85 -19 101 7 26 42 -60
79 -98 42z"/>
<path d="M8022 12538 c-31 -31 -5 -68 50 -68 27 0 40 5 48 19 13 25 13 27 -6
45 -18 19 -75 21 -92 4z"/>
<path d="M6720 12510 c-16 -16 -18 -24 -10 -41 9 -16 19 -19 52 -17 26 2 45
10 52 21 28 44 -54 77 -94 37z"/>
<path d="M8288 12509 c-10 -5 -18 -21 -18 -35 0 -26 30 -44 75 -44 45 0 54 63
11 75 -45 14 -52 14 -68 4z"/>
<path d="M6493 12483 c-29 -6 -45 -27 -41 -55 6 -47 108 -31 108 17 0 20 -28
49 -42 44 -2 -1 -13 -4 -25 -6z"/>
<path d="M8540 12450 c-22 -22 -17 -45 11 -60 41 -23 89 -6 89 31 0 20 -9 27
-51 39 -24 7 -34 5 -49 -10z"/>
<path d="M6228 12419 c-52 -20 -44 -79 11 -79 31 0 71 25 71 45 0 17 -27 45
-43 44 -7 0 -24 -5 -39 -10z"/>
<path d="M8790 12385 c-28 -34 24 -84 76 -71 35 9 34 63 -2 76 -36 14 -60 12
-74 -5z"/>
<path d="M5962 12334 c-28 -19 -28 -50 -2 -64 28 -15 87 4 95 31 14 44 -47 66
-93 33z"/>
<path d="M9034 12306 c-11 -29 2 -50 38 -64 31 -12 41 -12 53 -2 25 20 19 59
-11 70 -37 14 -74 12 -80 -4z"/>
<path d="M7460 12220 c0 -56 3 -70 15 -70 12 0 15 14 15 70 0 56 -3 70 -15 70
-12 0 -15 -14 -15 -70z"/>
<path d="M5733 12260 c-50 -20 -47 -80 5 -80 54 0 91 47 60 78 -14 14 -34 14
-65 2z"/>
<path d="M7916 12233 c-10 -65 -7 -103 8 -103 16 0 33 97 22 125 -10 26 -23
16 -30 -22z"/>
<path d="M7000 12228 c0 -59 12 -108 26 -108 15 0 18 39 8 103 -8 47 -34 51
-34 5z"/>
<path d="M9281 12211 c-23 -42 62 -94 97 -59 30 30 6 65 -51 75 -29 4 -37 2
-46 -16z"/>
<path d="M8375 12188 c-12 -36 -21 -119 -14 -124 16 -10 26 5 33 48 4 24 9 53
13 66 4 16 1 22 -11 22 -9 0 -19 -6 -21 -12z"/>
<path d="M6543 12168 c3 -12 9 -42 13 -66 7 -46 14 -55 31 -44 19 12 -8 126
-31 130 -15 3 -18 -1 -13 -20z"/>
<path d="M5491 12158 c-13 -7 -29 -21 -35 -31 -9 -15 -7 -22 12 -37 21 -17 27
-18 54 -7 41 17 57 41 42 65 -14 22 -42 26 -73 10z"/>
<path d="M9532 12118 c-23 -23 -14 -56 19 -74 57 -29 107 18 62 59 -26 22 -66
30 -81 15z"/>
<path d="M8827 12083 c-12 -20 -36 -116 -31 -124 12 -21 24 -5 43 54 18 61 19
77 1 77 -5 0 -11 -3 -13 -7z"/>
<path d="M6104 12072 c-16 -10 22 -132 41 -132 19 0 19 15 -1 76 -19 57 -25
66 -40 56z"/>
<path d="M5252 12040 c-37 -23 -41 -54 -9 -74 35 -22 103 37 81 72 -16 24 -34
25 -72 2z"/>
<path d="M9760 11995 c-19 -23 -7 -49 32 -70 30 -16 39 -17 52 -6 26 22 20 59
-14 76 -36 19 -54 19 -70 0z"/>
<path d="M5022 11918 c-31 -15 -40 -57 -17 -75 24 -17 24 -17 63 7 27 16 33
26 30 48 -3 31 -36 39 -76 20z"/>
<path d="M9251 11908 c-5 -13 -16 -40 -24 -60 -15 -35 -13 -48 5 -48 9 0 58
102 58 120 0 20 -31 9 -39 -12z"/>
<path d="M5672 11912 c-10 -7 -7 -22 14 -70 15 -34 30 -62 35 -62 21 0 18 25
-8 80 -20 43 -32 57 -41 52z"/>
<path d="M7245 11913 c-143 -8 -423 -46 -588 -79 -671 -134 -1287 -423 -1832
-859 -181 -145 -465 -424 -608 -597 -458 -558 -768 -1214 -902 -1906 -84 -441
-99 -937 -39 -1382 160 -1195 827 -2270 1829 -2949 1112 -754 2486 -941 3755
-513 1038 350 1913 1102 2416 2077 347 671 505 1381 473 2132 -40 958 -380
1828 -1008 2578 -99 119 -359 379 -491 491 -426 362 -930 642 -1475 817 -465
150 -1020 219 -1530 190z m445 -33 c513 -32 938 -124 1375 -298 418 -167 868
-444 1215 -748 648 -567 1105 -1317 1314 -2153 79 -314 113 -574 123 -921 13
-498 -60 -981 -219 -1450 -361 -1064 -1132 -1941 -2143 -2440 -441 -217 -878
-346 -1395 -410 -141 -18 -612 -24 -787 -11 -544 41 -1058 183 -1543 425 -102
51 -232 121 -290 156 -1117 672 -1857 1790 -2029 3065 -141 1042 102 2069 697
2945 273 402 674 806 1087 1095 501 350 1117 599 1725 695 236 37 340 46 665
58 22 1 114 -3 205 -8z"/>
<path d="M7393 11134 c-7 -20 75 -463 90 -482 6 -7 20 -12 31 -10 19 3 25 25
68 242 36 179 45 243 37 253 -8 9 -41 13 -116 13 -87 0 -105 -3 -110 -16z
m157 -63 c0 -13 -40 -204 -43 -208 -2 -1 -12 41 -22 95 -10 53 -20 103 -22
110 -4 8 8 12 41 12 25 0 46 -4 46 -9z"/>
<path d="M7120 11004 c-78 -61 -90 -73 -84 -88 9 -24 287 -267 302 -264 40 8
34 32 -52 211 -64 134 -89 177 -103 176 -10 0 -38 -16 -63 -35z m76 -113 l23
-52 -39 31 c-50 40 -55 47 -39 66 18 22 30 13 55 -45z"/>
<path d="M7733 10864 c-67 -136 -84 -180 -76 -193 6 -9 18 -16 27 -16 27 0
296 245 296 269 -1 23 -117 116 -145 116 -11 0 -44 -58 -102 -176z m157 57 c0
-5 -20 -25 -45 -45 -25 -21 -45 -35 -45 -31 0 3 11 28 25 56 23 44 28 48 45
39 11 -6 20 -15 20 -19z"/>
<path d="M6884 10550 c-19 -7 -233 -364 -633 -1052 -89 -153 -105 -203 -105
-318 0 -74 5 -107 22 -150 24 -62 84 -139 143 -184 21 -17 39 -34 39 -39 0 -8
-328 -728 -336 -736 -2 -2 -108 26 -236 61 -128 36 -239 63 -246 60 -7 -2 -12
-16 -10 -31 3 -24 41 -43 507 -258 277 -127 510 -229 517 -226 15 6 26 31 18
44 -3 6 -94 69 -202 141 -109 72 -198 132 -200 133 -2 2 74 169 167 371 155
334 173 369 193 367 13 -1 51 -5 85 -9 118 -13 242 27 329 108 92 85 100 106
449 1115 101 292 107 314 93 335 -10 15 -99 62 -259 135 -313 144 -310 142
-335 133z m286 -185 c157 -73 244 -119 242 -127 -5 -19 -220 -643 -327 -948
-51 -146 -105 -286 -120 -312 -36 -65 -95 -123 -157 -154 -139 -71 -357 -23
-490 108 -71 69 -101 133 -106 222 -7 122 8 158 257 583 398 680 435 743 446
743 5 -1 120 -52 255 -115z m-740 -1607 c0 -6 -74 -171 -164 -367 -90 -196
-170 -369 -177 -385 -12 -27 -11 -30 16 -52 27 -22 24 -22 -40 7 -77 34 -93
45 -55 36 14 -3 30 -3 37 1 9 6 283 585 349 740 14 31 34 44 34 20z"/>
<path d="M7169 9978 c-9 -16 -8 -39 1 -97 7 -42 16 -83 20 -91 10 -19 40 80
40 132 0 70 -36 103 -61 56z"/>
<path d="M6867 9924 c-3 -3 3 -28 14 -55 10 -28 19 -59 19 -70 0 -36 19 -10
26 37 8 53 -7 94 -34 94 -10 0 -21 -3 -25 -6z"/>
<path d="M7002 9897 c-6 -7 -18 -44 -27 -83 -20 -88 -57 -137 -115 -152 -77
-19 -180 23 -240 98 -23 29 -39 40 -53 38 -29 -4 -259 -397 -288 -492 -52
-166 22 -321 192 -405 172 -84 338 -58 438 69 41 52 123 248 197 470 32 99 38
128 38 205 0 70 -5 103 -23 148 -38 95 -89 141 -119 104z m75 -232 c5 -65 2
-82 -44 -220 -28 -83 -72 -206 -99 -275 -41 -106 -56 -133 -99 -177 -59 -60
-108 -78 -201 -70 -158 12 -291 128 -302 263 -6 86 9 124 134 339 l106 182 32
-30 c57 -54 132 -82 216 -82 62 0 82 4 114 24 44 28 93 98 103 150 l6 36 15
-35 c7 -19 16 -66 19 -105z"/>
<path d="M6567 9614 c-15 -16 -7 -53 14 -59 30 -10 58 19 43 43 -12 18 -45 28
-57 16z"/>
<path d="M6450 9441 c-7 -15 -6 -24 6 -36 31 -31 82 6 55 39 -18 22 -48 20
-61 -3z"/>
<path d="M6692 9368 c-20 -20 -14 -47 12 -54 14 -3 30 -3 35 1 18 10 12 44 -8
55 -24 13 -24 13 -39 -2z"/>
<path d="M6879 9294 c-17 -21 0 -49 32 -49 18 0 25 6 27 24 6 38 -34 55 -59
25z"/>
<path d="M6457 9174 c-14 -14 -7 -44 14 -55 29 -15 59 12 43 39 -12 18 -45 28
-57 16z"/>
<path d="M6704 9095 c-14 -35 24 -68 51 -45 8 7 15 20 15 30 0 30 -56 42 -66
15z"/>
<path d="M8049 10531 c-154 -67 -485 -224 -501 -238 -10 -9 -18 -23 -18 -31 0
-8 67 -209 149 -446 314 -908 299 -870 388 -966 86 -93 204 -138 338 -127 38
4 79 9 91 12 18 6 30 -14 114 -197 52 -112 129 -278 171 -371 l78 -167 -192
-129 c-106 -70 -198 -135 -205 -143 -14 -17 -7 -44 12 -51 7 -3 240 99 517
227 406 187 505 236 507 252 7 46 -15 44 -253 -22 -126 -35 -233 -64 -236 -64
-6 0 -339 720 -339 734 0 4 31 37 68 71 135 126 175 290 111 461 -41 110 -685
1203 -715 1215 -14 5 -42 -2 -85 -20z m135 -169 c401 -684 586 -1005 602
-1047 14 -36 19 -75 19 -140 0 -79 -4 -96 -29 -144 -104 -199 -391 -299 -575
-201 -100 54 -150 126 -218 317 -99 282 -372 1073 -375 1089 -2 14 50 42 242
130 135 63 250 114 255 114 6 0 41 -53 79 -118z m600 -1976 c98 -212 184 -387
191 -390 7 -2 24 -2 37 1 35 9 20 0 -56 -36 -66 -30 -68 -30 -43 -7 22 20 25
29 18 48 -5 13 -84 185 -176 383 -92 198 -169 366 -172 373 -3 6 1 12 9 12 10
0 78 -137 192 -384z"/>
<path d="M7835 10019 c-19 -30 2 -199 24 -199 10 0 35 156 30 185 -5 23 -43
33 -54 14z"/>
<path d="M8100 9911 c-11 -22 -12 -74 0 -111 5 -17 9 -20 12 -10 3 8 11 31 18
50 7 19 15 47 17 63 4 22 2 27 -16 27 -11 0 -25 -9 -31 -19z"/>
<path d="M7958 9863 c-45 -51 -78 -157 -78 -249 0 -88 73 -322 180 -577 43
-104 110 -178 188 -208 178 -68 420 28 503 198 32 65 37 172 14 248 -21 64
-261 483 -287 499 -15 9 -25 2 -63 -41 -53 -60 -93 -86 -156 -101 -105 -26
-186 37 -207 158 -6 34 -17 68 -23 76 -16 19 -53 17 -71 -3z m71 -206 c11 -19
40 -47 63 -63 37 -26 49 -29 122 -29 90 0 134 17 212 80 l41 34 110 -192 c61
-106 116 -207 123 -226 23 -58 18 -149 -10 -205 -66 -131 -264 -216 -398 -172
-56 19 -120 75 -148 128 -30 58 -153 396 -180 495 -22 83 -24 102 -16 152 6
31 16 70 22 86 l12 30 13 -42 c7 -23 22 -57 34 -76z"/>
<path d="M8402 9608 c-26 -26 1 -65 38 -53 16 5 20 14 18 33 -3 30 -35 41 -56
20z"/>
<path d="M8512 9448 c-26 -26 1 -65 38 -53 16 5 20 14 18 33 -3 30 -35 41 -56
20z"/>
<path d="M8282 9368 c-15 -15 -16 -45 -1 -53 18 -12 59 4 59 23 0 20 -18 42
-35 42 -6 0 -16 -5 -23 -12z"/>
<path d="M8086 9294 c-20 -19 -5 -54 23 -54 29 0 45 25 31 49 -13 25 -33 27
-54 5z"/>
<path d="M8513 9174 c-17 -8 -16 -39 1 -53 22 -18 58 4 54 32 -3 22 -29 31
-55 21z"/>
<path d="M8263 9104 c-17 -8 -16 -39 1 -53 22 -18 58 4 54 32 -3 22 -29 31
-55 21z"/>
<path d="M6695 7014 c-82 -196 -153 -365 -157 -375 -7 -17 -2 -19 35 -19 l42
0 60 145 60 145 115 0 115 0 60 -145 60 -145 42 0 c37 0 41 2 35 19 -33 88
-308 731 -312 731 -3 0 -72 -161 -155 -356z m198 64 l36 -88 -79 0 -79 0 34
81 c19 44 35 88 35 97 0 27 15 1 53 -90z"/>
<path d="M5637 7343 c-4 -3 -7 -168 -7 -365 l0 -358 45 0 45 0 0 165 0 165
195 0 195 0 0 -165 0 -165 45 0 45 0 -2 363 -3 362 -40 0 -40 0 -3 -157 -3
-158 -194 0 -195 0 0 160 0 160 -38 0 c-21 0 -42 -3 -45 -7z"/>
<path d="M7480 6986 l0 -366 45 0 45 0 0 159 0 158 92 7 c116 8 169 31 202 89
66 116 27 234 -96 287 -42 18 -78 24 -170 28 l-118 5 0 -367z m226 273 c55
-14 104 -66 104 -110 0 -79 -56 -119 -169 -119 l-71 0 0 120 0 120 46 0 c25 0
65 -5 90 -11z"/>
<path d="M8180 6985 l0 -365 40 0 40 0 0 159 0 158 96 7 c133 9 185 37 219
119 21 51 19 120 -5 168 -41 79 -145 119 -313 119 l-77 0 0 -365z m262 258
c18 -10 41 -34 52 -52 18 -31 18 -37 5 -75 -22 -63 -64 -86 -160 -86 l-79 0 0
121 0 122 75 -6 c47 -3 88 -13 107 -24z"/>
<path d="M8834 7334 c3 -8 62 -110 131 -226 l125 -210 0 -139 0 -139 50 0 50
0 0 138 0 138 125 212 c69 117 128 219 131 227 5 12 -4 15 -43 15 l-50 0 -101
-172 c-56 -95 -104 -177 -107 -183 -3 -7 -7 -6 -10 0 -3 6 -51 88 -107 183
l-102 172 -49 0 c-41 0 -48 -3 -43 -16z"/>
<path d="M7930 5848 l0 -378 40 0 40 0 2 274 3 274 225 -239 c124 -131 246
-262 273 -291 l47 -52 0 382 0 382 -40 0 -40 0 -2 -283 -3 -283 -215 233
c-118 128 -241 261 -272 295 l-57 63 -1 -377z"/>
<path d="M5660 5835 l0 -365 40 0 40 0 0 159 0 158 96 7 c133 9 185 37 219
119 21 51 19 120 -5 168 -41 79 -145 119 -313 119 l-77 0 0 -365z m262 258
c18 -10 41 -34 52 -52 18 -31 18 -37 5 -75 -22 -63 -64 -86 -160 -86 l-79 0 0
121 0 122 75 -6 c47 -3 88 -13 107 -24z"/>
<path d="M6599 6181 c-73 -29 -137 -80 -178 -142 -50 -75 -64 -130 -59 -231 3
-70 9 -93 38 -146 57 -107 150 -174 274 -195 150 -25 316 64 386 208 87 179 6
402 -177 491 -75 37 -212 45 -284 15z m224 -77 c60 -20 126 -79 157 -140 34
-67 36 -198 3 -259 -29 -54 -87 -110 -142 -137 -68 -33 -168 -31 -237 5 -149
77 -206 257 -126 400 31 55 103 118 156 135 48 15 137 14 189 -4z"/>
<path d="M7450 5836 l0 -366 45 0 45 0 -2 363 -3 362 -42 3 -43 3 0 -365z"/>
<path d="M8860 6160 l0 -40 120 0 120 0 0 -325 0 -325 45 0 45 0 0 325 0 325
120 0 120 0 0 40 0 40 -285 0 -285 0 0 -40z"/>
<path d="M7453 4465 c-59 -26 -67 -71 -26 -148 23 -41 25 -51 13 -55 -8 -3
-27 -18 -42 -33 -22 -22 -28 -37 -28 -72 0 -88 88 -135 171 -91 17 8 32 14 33
12 2 -2 7 -11 12 -21 9 -15 12 -15 29 -4 18 14 18 15 -3 45 -37 51 -25 122 20
122 11 0 18 7 18 20 0 17 -7 20 -44 20 -39 0 -45 -3 -53 -27 -9 -26 -11 -24
-56 50 -26 43 -47 88 -47 101 0 34 24 50 64 43 26 -4 36 -1 41 10 6 16 -10 33
-32 33 -6 0 -17 2 -25 5 -7 2 -27 -2 -45 -10z m62 -292 l28 -46 -23 -19 c-30
-24 -59 -23 -87 4 -28 26 -30 61 -3 88 32 32 55 25 85 -27z"/>
<path d="M6480 4250 l0 -200 25 0 c25 0 25 1 25 90 l0 90 110 0 110 0 0 -90
c0 -83 1 -90 20 -90 19 0 20 7 20 200 0 192 -1 200 -20 200 -17 0 -19 -8 -22
-87 l-3 -88 -107 -3 -108 -3 0 91 c0 89 0 90 -25 90 l-25 0 0 -200z"/>
<path d="M8210 4443 c0 -15 163 -393 170 -393 7 0 170 377 170 393 0 5 -9 7
-21 5 -17 -2 -33 -33 -82 -150 -34 -82 -64 -148 -67 -148 -3 0 -33 67 -66 148
-50 118 -66 148 -83 150 -11 2 -21 0 -21 -5z"/>
<path d="M9992 11868 c-20 -20 -14 -46 17 -67 33 -24 52 -26 69 -9 19 19 14
45 -14 67 -30 24 -54 27 -72 9z"/>
<path d="M4802 11780 c-27 -16 -33 -26 -30 -48 4 -36 43 -41 81 -12 32 25 35
55 8 70 -25 13 -20 13 -59 -10z"/>
<path d="M9649 11678 c-24 -47 -28 -63 -18 -69 9 -5 23 9 46 49 37 66 38 68
18 76 -11 4 -24 -12 -46 -56z"/>
<path d="M10212 11728 c-19 -19 -14 -45 14 -67 30 -24 54 -27 72 -9 20 20 14
46 -17 67 -33 24 -52 26 -69 9z"/>
<path d="M5250 11700 c0 -6 14 -35 31 -65 20 -35 35 -52 44 -48 11 4 8 17 -15
64 -17 32 -37 59 -45 59 -8 0 -15 -5 -15 -10z"/>
<path d="M4587 11632 c-32 -20 -43 -47 -27 -67 16 -20 45 -19 75 1 27 17 33
52 13 72 -16 16 -28 15 -61 -6z"/>
<path d="M10426 11574 c-22 -21 -20 -37 7 -61 29 -27 48 -32 70 -21 27 14 21
54 -12 77 -35 25 -45 26 -65 5z"/>
<path d="M4376 11469 c-20 -15 -26 -29 -24 -48 4 -37 49 -41 83 -7 29 29 31
39 9 60 -21 21 -36 20 -68 -5z"/>
<path d="M10036 11438 c-33 -48 -37 -68 -16 -68 11 0 80 94 80 109 0 27 -32 7
-64 -41z"/>
<path d="M4863 11462 c-9 -6 -1 -24 28 -65 36 -51 59 -65 59 -36 0 11 -63 109
-70 109 -3 0 -10 -4 -17 -8z"/>
<path d="M10627 11413 c-15 -14 -6 -51 17 -72 52 -49 104 3 55 55 -21 23 -58
32 -72 17z"/>
<path d="M4177 11295 c-32 -30 -35 -60 -7 -75 23 -12 45 -3 74 29 16 18 17 25
8 46 -15 32 -40 32 -75 0z"/>
<path d="M10822 11238 c-19 -19 -14 -42 17 -72 33 -31 66 -29 76 5 5 15 -1 29
-21 50 -30 31 -53 36 -72 17z"/>
<path d="M10403 11168 c-40 -50 -46 -68 -20 -68 14 1 82 85 82 102 0 27 -23
15 -62 -34z"/>
<path d="M4495 11180 c-7 -11 70 -110 85 -110 23 0 16 22 -22 69 -43 52 -52
59 -63 41z"/>
<path d="M3993 11118 c-31 -35 -35 -46 -23 -68 14 -27 46 -25 75 5 29 28 31
47 9 69 -21 22 -37 20 -61 -6z"/>
<path d="M11007 11053 c-14 -13 -6 -50 14 -72 28 -30 73 -26 77 7 6 43 -64 93
-91 65z"/>
<path d="M3822 10934 c-47 -33 -45 -94 3 -94 26 0 65 42 65 71 0 10 -9 23 -19
29 -25 13 -22 13 -49 -6z"/>
<path d="M10732 10857 c-35 -36 -40 -46 -29 -55 10 -9 23 -1 60 36 44 45 50
62 22 62 -6 0 -30 -20 -53 -43z"/>
<path d="M4162 10867 c-17 -19 82 -117 100 -99 10 10 2 23 -38 63 -41 41 -53
48 -62 36z"/>
<path d="M11182 10858 c-7 -7 -12 -19 -12 -29 0 -18 43 -69 59 -69 45 0 56 52
18 88 -26 25 -47 28 -65 10z"/>
<path d="M3644 10723 c-33 -36 -30 -77 7 -81 19 -2 33 4 48 24 26 33 27 60 2
74 -27 14 -29 13 -57 -17z"/>
<path d="M11358 10659 c-37 -21 -8 -99 36 -99 13 0 30 7 37 16 26 31 -38 103
-73 83z"/>
<path d="M11041 10519 c-41 -33 -49 -44 -40 -55 9 -11 20 -7 63 28 28 23 52
43 54 44 1 0 -4 6 -11 13 -11 9 -25 2 -66 -30z"/>
<path d="M3491 10518 c-41 -44 -34 -88 14 -88 40 0 71 70 43 98 -18 18 -35 15
-57 -10z"/>
<path d="M3855 10511 c-9 -15 98 -92 110 -80 7 7 -4 23 -35 50 -45 39 -64 47
-75 30z"/>
<path d="M11497 10443 c-19 -19 7 -85 39 -97 22 -8 54 11 54 33 0 44 -68 90
-93 64z"/>
<path d="M3340 10298 c-14 -15 -20 -33 -18 -53 3 -26 7 -30 32 -30 23 0 34 7
49 32 34 59 -17 100 -63 51z"/>
<path d="M11634 10205 c-8 -33 30 -87 59 -83 35 5 44 33 23 73 -15 27 -25 35
-47 35 -22 0 -30 -6 -35 -25z"/>
<path d="M11315 10154 c-53 -36 -62 -48 -46 -58 6 -4 35 10 66 30 44 29 53 40
44 50 -6 8 -12 14 -13 13 0 0 -23 -16 -51 -35z"/>
<path d="M3587 10137 c-5 -14 106 -90 117 -80 13 13 4 24 -46 58 -59 39 -64
41 -71 22z"/>
<path d="M3216 10084 c-42 -41 -43 -87 -4 -100 47 -15 92 83 49 106 -25 13
-27 13 -45 -6z"/>
<path d="M11778 9999 c-22 -12 -23 -31 -3 -68 23 -45 67 -51 80 -11 7 23 -18
75 -40 84 -20 7 -16 8 -37 -5z"/>
<path d="M3073 9824 c-19 -38 -11 -66 21 -72 38 -8 80 64 55 94 -22 27 -58 17
-76 -22z"/>
<path d="M11543 9757 c-45 -23 -60 -36 -54 -45 12 -20 133 42 125 63 -4 8 -7
15 -8 15 0 -1 -29 -15 -63 -33z"/>
<path d="M11887 9763 c-21 -20 12 -103 41 -103 41 0 55 47 26 88 -14 21 -53
30 -67 15z"/>
<path d="M3364 9735 c-4 -9 -5 -17 -3 -19 15 -12 119 -53 123 -48 14 13 3 23
-54 52 -52 26 -61 28 -66 15z"/>
<path d="M2987 9618 c-20 -16 -38 -63 -31 -83 3 -8 15 -17 26 -21 42 -13 85
68 53 100 -20 19 -26 20 -48 4z"/>
<path d="M11990 9515 c-15 -18 3 -80 26 -89 48 -19 72 15 50 69 -11 26 -21 35
-39 35 -14 0 -30 -7 -37 -15z"/>
<path d="M2882 9368 c-16 -21 -24 -57 -17 -78 14 -46 85 -8 85 45 0 39 -45 61
-68 33z"/>
<path d="M11733 9343 c-61 -24 -73 -35 -54 -48 9 -5 109 30 123 43 4 4 4 12 0
19 -5 8 -25 4 -69 -14z"/>
<path d="M3176 9315 c-6 -17 -5 -18 64 -44 41 -16 56 -18 62 -8 9 16 4 20 -64
45 -47 17 -57 18 -62 7z"/>
<path d="M12081 9271 c-14 -25 4 -78 32 -93 17 -9 24 -7 38 11 14 17 16 28 8
53 -14 49 -59 66 -78 29z"/>
<path d="M2789 9103 c-16 -42 -8 -77 19 -81 30 -5 49 12 57 49 8 36 -8 59 -41
59 -17 0 -28 -8 -35 -27z"/>
<path d="M12160 9025 c-16 -20 2 -90 26 -99 26 -10 54 12 54 42 0 57 -51 92
-80 57z"/>
<path d="M11872 8911 c-29 -10 -53 -20 -53 -24 1 -4 1 -11 1 -16 0 -5 28 -2
62 7 43 12 64 23 66 35 4 21 -7 20 -76 -2z"/>
<path d="M3033 8874 c-7 -19 -9 -18 64 -36 53 -13 63 -13 67 -1 6 15 7 15 -72
37 -47 14 -54 14 -59 0z"/>
<path d="M2731 8867 c-6 -8 -14 -29 -17 -47 -8 -38 13 -62 46 -53 27 7 48 76
30 98 -15 19 -44 19 -59 2z"/>
<path d="M12238 8779 c-20 -11 -24 -59 -8 -90 15 -27 58 -25 69 3 10 26 -3 78
-21 90 -16 10 -19 10 -40 -3z"/>
<path d="M2688 8623 c-20 -5 -31 -37 -26 -79 4 -35 44 -46 65 -18 33 45 7 107
-39 97z"/>
<path d="M12282 8518 c-17 -17 -15 -74 4 -92 32 -33 64 -11 64 44 0 39 -14 60
-40 60 -9 0 -21 -5 -28 -12z"/>
<path d="M11965 8468 c-59 -12 -57 -11 -50 -30 9 -22 129 1 133 25 4 19 -7 20
-83 5z"/>
<path d="M2935 8431 c-16 -15 1 -30 43 -36 26 -3 57 -9 70 -12 17 -4 22 -1 22
14 0 17 -11 21 -65 29 -36 6 -68 8 -70 5z"/>
<path d="M2637 8357 c-22 -15 -26 -85 -6 -98 33 -21 58 -4 66 46 5 30 2 41
-12 51 -23 17 -27 17 -48 1z"/>
<path d="M12323 8263 c-8 -3 -13 -23 -13 -48 0 -34 5 -47 20 -55 31 -16 60 4
60 41 0 56 -25 79 -67 62z"/>
<path d="M2605 8094 c-37 -38 0 -124 43 -98 25 16 29 84 6 101 -23 17 -29 16
-49 -3z"/>
<path d="M11998 8013 c-40 -6 -36 -33 5 -33 58 0 107 12 107 26 0 14 -47 17
-112 7z"/>
<path d="M12342 7998 c-7 -7 -12 -29 -12 -50 0 -31 5 -41 25 -50 34 -15 55 4
55 51 0 40 -14 61 -40 61 -9 0 -21 -5 -28 -12z"/>
<path d="M2880 7961 c0 -19 5 -21 70 -21 56 0 70 3 70 15 0 11 -12 15 -47 15
-27 0 -58 3 -70 6 -19 5 -23 2 -23 -15z"/>
<path d="M2584 7826 c-11 -28 1 -89 19 -100 37 -22 78 69 45 102 -16 16 -57
15 -64 -2z"/>
<path d="M12346 7734 c-3 -9 -6 -40 -6 -69 0 -68 7 -85 34 -85 35 0 46 20 46
85 0 34 -5 66 -12 73 -17 17 -55 15 -62 -4z"/>
<path d="M11987 7643 c-18 -17 -1 -23 63 -23 56 0 70 3 70 15 0 12 -14 15 -63
15 -35 0 -67 -3 -70 -7z"/>
<path d="M2584 7556 c-3 -8 -4 -29 -2 -48 2 -26 8 -34 26 -36 13 -2 30 2 38 8
17 15 19 61 2 78 -16 16 -57 15 -64 -2z"/>
<path d="M2888 7513 c-10 -2 -18 -11 -18 -19 0 -10 14 -14 54 -14 64 0 86 7
86 26 0 10 -14 14 -52 13 -29 -1 -61 -3 -70 -6z"/>
<path d="M12341 7426 c-17 -21 -10 -87 12 -100 27 -17 51 5 55 48 4 41 -11 66
-38 66 -10 0 -23 -6 -29 -14z"/>
<path d="M2602 7308 c-20 -20 -15 -75 10 -92 32 -23 58 -5 58 42 0 40 -14 62
-40 62 -9 0 -21 -5 -28 -12z"/>
<path d="M11960 7197 c0 -16 26 -24 95 -29 31 -2 40 1 43 15 3 12 -3 17 -21
17 -13 0 -45 3 -71 6 -38 6 -46 4 -46 -9z"/>
<path d="M12322 7168 c-7 -7 -12 -28 -12 -48 0 -55 32 -77 64 -44 19 18 21 75
4 92 -7 7 -19 12 -28 12 -9 0 -21 -5 -28 -12z"/>
<path d="M2960 7061 c-33 -4 -46 -11 -48 -24 -3 -17 1 -18 45 -12 79 10 93 15
93 30 0 16 -11 16 -90 6z"/>
<path d="M2627 7053 c-9 -9 -9 -75 1 -89 11 -17 35 -22 55 -12 19 10 23 58 7
89 -10 18 -50 26 -63 12z"/>
<path d="M12286 6898 c-30 -42 -15 -98 25 -98 22 0 35 18 42 57 11 55 -37 84
-67 41z"/>
<path d="M2667 6793 c-12 -11 -8 -68 6 -87 8 -11 23 -17 38 -14 20 2 25 9 27
41 2 21 -2 45 -9 53 -12 14 -51 19 -62 7z"/>
<path d="M11890 6753 c0 -15 12 -22 58 -31 74 -15 82 -15 82 2 0 9 -20 18 -52
26 -29 6 -61 14 -70 17 -13 3 -18 -1 -18 -14z"/>
<path d="M12236 6638 c-33 -47 -11 -103 35 -91 26 7 47 77 29 98 -18 22 -46
19 -64 -7z"/>
<path d="M3048 6613 c-41 -11 -55 -19 -51 -29 6 -17 14 -17 78 -1 32 9 51 19
53 30 4 20 -4 20 -80 0z"/>
<path d="M2725 6534 c-28 -28 -2 -104 35 -104 28 0 43 26 36 62 -11 56 -39 73
-71 42z"/>
<path d="M12176 6394 c-23 -23 -25 -82 -3 -96 32 -21 67 8 67 56 0 51 -33 72
-64 40z"/>
<path d="M11777 6316 c-5 -12 9 -20 59 -36 80 -24 74 -24 74 -2 0 13 -13 22
-47 31 -27 7 -55 15 -64 18 -9 2 -19 -2 -22 -11z"/>
<path d="M2794 6283 c-28 -28 -2 -103 36 -103 31 0 44 27 34 67 -11 43 -45 61
-70 36z"/>
<path d="M3188 6178 c-42 -14 -58 -25 -58 -38 0 -17 3 -17 65 3 58 19 80 38
58 50 -5 2 -34 -4 -65 -15z"/>
<path d="M12101 6146 c-21 -25 -25 -80 -7 -95 25 -21 54 -4 68 41 11 36 10 42
-7 54 -24 18 -40 18 -54 0z"/>
<path d="M2876 6034 c-19 -18 -19 -22 -5 -62 11 -33 35 -47 63 -36 23 9 21 69
-4 94 -24 24 -34 25 -54 4z"/>
<path d="M11626 5903 c-14 -14 -3 -25 50 -48 66 -29 74 -30 74 -10 0 18 -112
70 -124 58z"/>
<path d="M12005 5886 c-23 -35 -16 -80 13 -84 30 -5 49 12 57 49 12 56 -40 81
-70 35z"/>
<path d="M2967 5793 c-24 -23 9 -103 42 -103 40 0 54 47 25 88 -14 21 -53 30
-67 15z"/>
<path d="M3353 5752 c-47 -23 -71 -52 -43 -52 24 0 121 51 118 62 -7 20 -21
18 -75 -10z"/>
<path d="M11908 5653 c-39 -45 -32 -93 14 -93 24 0 32 6 44 35 17 42 17 40 -2
59 -20 21 -37 20 -56 -1z"/>
<path d="M3088 5559 c-25 -14 -23 -64 3 -90 23 -23 47 -22 63 3 23 38 -30 108
-66 87z"/>
<path d="M11425 5489 c-8 -12 -13 -8 58 -48 49 -28 58 -30 63 -16 8 19 11 17
-53 49 -60 30 -60 30 -68 15z"/>
<path d="M11793 5418 c-27 -34 -34 -58 -23 -79 25 -45 100 12 86 65 -7 28 -45
37 -63 14z"/>
<path d="M3563 5347 c-38 -23 -50 -36 -44 -46 7 -11 20 -7 65 20 31 19 56 39
56 46 0 20 -21 15 -77 -20z"/>
<path d="M3197 5323 c-18 -17 4 -87 31 -98 46 -17 70 35 36 83 -14 21 -53 30
-67 15z"/>
<path d="M11650 5171 c-25 -36 -20 -67 12 -77 29 -9 70 38 66 75 -5 40 -49 41
-78 2z"/>
<path d="M11185 5109 c-4 -6 -5 -11 -4 -13 2 -1 27 -19 55 -39 59 -42 60 -42
68 -22 3 10 -11 26 -47 50 -56 38 -63 40 -72 24z"/>
<path d="M3332 5098 c-16 -16 -15 -35 5 -69 18 -31 50 -38 71 -17 17 17 15 36
-9 69 -21 31 -47 37 -67 17z"/>
<path d="M3824 4974 c-27 -21 -51 -39 -53 -40 -2 -2 -1 -10 3 -19 5 -14 13
-11 51 16 59 42 71 57 58 70 -6 6 -27 -3 -59 -27z"/>
<path d="M11511 4954 c-28 -36 -27 -62 5 -76 24 -11 29 -9 51 16 32 38 28 80
-8 84 -19 2 -33 -4 -48 -24z"/>
<path d="M3470 4870 c-8 -16 -7 -27 7 -50 19 -33 38 -43 63 -35 29 9 32 35 9
71 -24 39 -62 46 -79 14z"/>
<path d="M11361 4744 c-25 -32 -24 -62 2 -78 21 -14 46 0 67 37 31 55 -30 90
-69 41z"/>
<path d="M10915 4750 c-4 -6 15 -30 42 -54 38 -35 51 -42 62 -33 11 9 5 20
-35 54 -51 45 -59 49 -69 33z"/>
<path d="M3632 4668 c-19 -19 -14 -43 13 -72 26 -28 44 -33 63 -14 19 19 14
53 -11 76 -26 25 -47 28 -65 10z"/>
<path d="M4105 4615 c-37 -34 -46 -48 -38 -56 16 -16 115 65 106 87 -8 20 -12
18 -68 -31z"/>
<path d="M11191 4534 c-25 -31 -26 -47 -7 -64 22 -18 57 -8 80 23 16 21 18 32
10 45 -18 29 -59 27 -83 -4z"/>
<path d="M3800 4465 c-29 -35 31 -112 69 -88 25 16 25 52 0 79 -26 27 -51 31
-69 9z"/>
<path d="M10605 4431 c-8 -14 73 -113 88 -108 23 7 15 24 -32 71 -31 30 -51
44 -56 37z"/>
<path d="M11025 4345 c-37 -36 -28 -85 15 -85 43 0 81 90 44 104 -26 10 -34 7
-59 -19z"/>
<path d="M4431 4295 c-42 -45 -48 -59 -32 -69 12 -8 103 93 95 105 -10 16 -21
10 -63 -36z"/>
<path d="M3980 4276 c-18 -22 -8 -57 23 -80 53 -39 91 21 43 69 -28 28 -48 32
-66 11z"/>
<path d="M10849 4168 c-33 -28 -41 -46 -29 -67 14 -28 51 -27 78 2 25 26 28
47 10 65 -16 16 -40 15 -59 0z"/>
<path d="M10265 4130 c-7 -11 65 -110 80 -110 26 0 22 15 -18 66 -43 55 -51
61 -62 44z"/>
<path d="M4166 4094 c-22 -22 -20 -34 11 -66 29 -30 52 -35 71 -16 20 20 14
45 -19 72 -36 30 -42 31 -63 10z"/>
<path d="M4781 4005 c-38 -50 -45 -75 -22 -75 5 0 27 24 49 54 33 44 39 56 28
65 -10 9 -23 -1 -55 -44z"/>
<path d="M10657 3992 c-32 -20 -45 -56 -27 -77 19 -23 43 -18 73 13 31 32 33
44 11 66 -19 20 -22 20 -57 -2z"/>
<path d="M4355 3910 c-8 -25 7 -52 40 -70 51 -27 85 23 44 66 -28 30 -75 33
-84 4z"/>
<path d="M9902 3871 c-19 -11 53 -122 74 -114 8 3 14 7 14 9 0 4 -72 114 -74
114 -1 0 -7 -4 -14 -9z"/>
<path d="M10441 3816 c-47 -50 -4 -98 54 -60 20 13 25 24 23 48 -4 41 -43 48
-77 12z"/>
<path d="M5162 3755 c-35 -58 -38 -71 -19 -78 7 -2 26 21 44 52 37 64 38 67
20 74 -8 3 -26 -15 -45 -48z"/>
<path d="M4567 3763 c-16 -15 -5 -53 19 -72 36 -28 62 -26 76 5 11 24 9 29
-15 50 -27 23 -66 31 -80 17z"/>
<path d="M10239 3667 c-38 -26 -44 -53 -14 -73 18 -12 25 -11 53 6 37 23 44
63 13 79 -14 8 -27 5 -52 -12z"/>
<path d="M9511 3651 c-19 -12 43 -133 64 -125 8 4 15 7 15 8 0 1 -15 30 -33
63 -23 44 -36 60 -46 54z"/>
<path d="M4780 3605 c-18 -21 -4 -50 34 -70 29 -16 37 -17 50 -6 24 20 20 56
-9 75 -30 20 -59 21 -75 1z"/>
<path d="M5560 3531 c-25 -51 -27 -60 -13 -65 19 -8 14 -14 47 58 31 69 30 66
11 66 -8 0 -28 -27 -45 -59z"/>
<path d="M10006 3519 c-30 -23 -33 -41 -10 -63 22 -23 38 -20 74 14 26 25 30
32 20 50 -14 26 -50 26 -84 -1z"/>
<path d="M5000 3460 c-9 -17 -6 -25 15 -46 29 -29 71 -30 89 -1 9 15 6 23 -17
43 -34 29 -72 31 -87 4z"/>
<path d="M9090 3464 c0 -27 45 -124 58 -124 11 0 13 7 9 28 -10 49 -37 102
-52 102 -8 0 -15 -3 -15 -6z"/>
<path d="M5986 3368 c-10 -29 -21 -59 -23 -65 -3 -8 3 -13 14 -13 14 0 24 15
40 65 19 59 20 65 4 65 -11 0 -23 -17 -35 -52z"/>
<path d="M9788 3394 c-32 -17 -37 -54 -12 -75 13 -11 22 -10 52 6 39 21 51 47
32 70 -16 19 -37 18 -72 -1z"/>
<path d="M5236 3344 c-21 -20 -20 -30 4 -54 30 -30 70 -37 87 -15 20 29 16 44
-19 65 -40 24 -52 25 -72 4z"/>
<path d="M8664 3313 c3 -10 10 -39 17 -65 8 -35 16 -48 29 -48 18 0 18 2 1 63
-12 42 -23 63 -35 65 -13 3 -17 -1 -12 -15z"/>
<path d="M6435 3287 c-26 -80 -31 -127 -11 -127 8 0 18 19 25 48 7 26 14 54
17 63 5 19 -25 35 -31 16z"/>
<path d="M9553 3278 c-43 -21 -37 -78 8 -78 26 0 67 20 73 37 16 41 -32 65
-81 41z"/>
<path d="M5465 3221 c-8 -27 3 -48 35 -61 43 -18 65 -10 68 26 2 24 -2 33 -23
42 -39 18 -73 15 -80 -7z"/>
<path d="M8233 3232 c-7 -5 -8 -25 0 -69 7 -49 14 -63 27 -63 15 0 16 6 6 64
-12 70 -16 78 -33 68z"/>
<path d="M6876 3192 c-17 -90 -17 -109 -2 -115 17 -7 20 3 31 84 4 36 2 48 -9
52 -10 4 -16 -2 -20 -21z"/>
<path d="M9320 3172 c-40 -19 -48 -42 -25 -66 21 -21 33 -20 73 4 35 22 40 40
16 64 -19 20 -21 20 -64 -2z"/>
<path d="M7326 3158 c-12 -45 -7 -118 8 -118 19 0 26 22 26 86 0 39 -4 54 -14
54 -7 0 -16 -10 -20 -22z"/>
<path d="M7780 3116 c0 -61 12 -90 29 -70 4 5 5 37 3 72 -3 45 -8 62 -18 62
-11 0 -14 -16 -14 -64z"/>
<path d="M5711 3126 c-21 -25 -4 -54 39 -67 31 -9 43 -9 55 1 19 16 19 44 1
59 -25 21 -80 25 -95 7z"/>
<path d="M9063 3075 c-45 -32 -19 -82 36 -70 37 8 54 27 49 57 -4 29 -52 36
-85 13z"/>
<path d="M5968 3049 c-36 -20 -19 -65 30 -78 25 -8 36 -6 53 8 18 14 20 21 11
38 -9 15 -64 46 -76 43 -1 0 -9 -5 -18 -11z"/>
<path d="M8813 3000 c-26 -11 -31 -51 -9 -69 16 -13 71 -4 87 15 6 7 9 23 7
36 -2 18 -10 23 -33 25 -16 1 -40 -2 -52 -7z"/>
<path d="M6212 2968 c-23 -23 -13 -48 24 -64 42 -18 70 -11 80 18 13 42 -71
79 -104 46z"/>
<path d="M8574 2939 c-37 -10 -48 -32 -34 -60 11 -19 37 -24 78 -13 31 9 41
53 17 71 -21 15 -19 15 -61 2z"/>
<path d="M6467 2913 c-12 -11 -8 -50 6 -60 20 -17 59 -23 79 -12 24 13 23 55
-1 69 -22 11 -74 14 -84 3z"/>
<path d="M8291 2876 c-7 -8 -11 -25 -9 -38 2 -18 10 -24 35 -26 47 -5 75 14
71 46 -3 24 -8 27 -44 30 -27 2 -45 -2 -53 -12z"/>
<path d="M6730 2863 c-27 -19 -25 -39 4 -58 48 -32 116 1 90 42 -15 25 -69 34
-94 16z"/>
<path d="M8066 2851 c-61 -12 -60 -73 2 -79 40 -4 77 29 63 57 -13 24 -29 29
-65 22z"/>
<path d="M6981 2821 c-6 -11 -8 -27 -5 -35 12 -32 89 -34 108 -3 18 28 -4 52
-52 55 -32 2 -43 -1 -51 -17z"/>
<path d="M7530 2817 c-17 -9 -26 -22 -28 -45 -4 -38 12 -47 63 -38 27 5 36 13
41 33 13 50 -26 76 -76 50z"/>
<path d="M7772 2818 c-29 -29 -5 -68 43 -68 48 0 71 27 53 63 -10 20 -77 24
-96 5z"/>
<path d="M7241 2801 c-21 -38 11 -71 68 -71 25 0 32 5 37 27 10 38 -7 58 -54
61 -32 2 -43 -1 -51 -17z"/>
</g>
</svg>
